<?xml version="1.0" encoding="UTF-8" standalone="no"?>
<!DOCTYPE svg PUBLIC "-//W3C//DTD SVG 1.1//EN" "http://www.w3.org/Graphics/SVG/1.1/DTD/svg11.dtd">
<svg xmlns="http://www.w3.org/2000/svg" version="1.1" viewBox="0.00 0.00 877.00 877.00">
<g stroke-width="2.00" fill="none" stroke-linecap="butt">
<path stroke="#fba087" vector-effect="non-scaling-stroke" d="
  M 690.72 119.08
  L 681.54 122.80"
/>
<path stroke="#f79191" vector-effect="non-scaling-stroke" d="
  M 681.54 122.80
  C 630.90 145.99 614.20 209.34 646.74 254.25
  C 668.78 284.67 709.90 298.56 745.60 286.19
  Q 763.69 279.92 778.35 266.94"
/>
<path stroke="#fba087" vector-effect="non-scaling-stroke" d="
  M 778.35 266.94
  Q 785.52 260.20 791.11 252.15"
/>
<path stroke="#fbc383" vector-effect="non-scaling-stroke" d="
  M 791.11 252.15
  Q 816.16 211.26 798.69 166.89"
/>
<path stroke="#fcd38f" vector-effect="non-scaling-stroke" d="
  M 798.69 166.89
  C 791.55 149.94 779.91 135.89 763.85 126.87
  Q 735.63 111.01 702.25 116.02
  Q 696.97 116.82 690.72 119.08"
/>
<path stroke="#fb9815" vector-effect="non-scaling-stroke" d="
  M 798.69 166.89
  Q 798.11 166.91 798.11 167.97
  Q 798.11 168.47 798.40 169.09
  Q 800.38 173.37 800.41 177.26
  Q 800.42 178.30 799.49 178.74
  Q 798.06 179.42 798.06 179.43
  Q 791.98 183.43 785.26 186.16
  Q 783.19 187.00 778.50 189.38
  Q 774.24 191.54 769.42 192.30
  Q 768.94 192.38 768.56 192.08
  Q 767.81 191.49 767.01 191.78
  Q 766.54 191.96 766.05 191.93
  C 762.82 191.73 759.24 192.50 756.46 192.26
  Q 749.20 191.63 743.09 187.89
  C 738.77 185.25 731.91 180.11 728.85 175.76
  Q 726.51 172.45 724.66 170.84
  Q 724.29 170.52 724.18 170.04
  Q 723.84 168.58 722.42 166.22
  Q 716.95 157.10 715.27 144.95
  Q 715.24 144.76 715.05 144.76
  Q 714.91 144.76 714.76 144.76
  Q 714.53 144.76 714.57 144.53
  Q 714.98 142.47 713.35 141.22
  Q 713.00 140.95 712.93 140.51
  L 709.75 118.71
  A 0.96 0.95 -82.6 0 0 709.19 117.98
  Q 706.23 116.71 703.49 117.12
  Q 698.17 117.94 691.48 120.50"
/>
<path stroke="#fb7519" vector-effect="non-scaling-stroke" d="
  M 691.48 120.50
  L 690.72 119.08"
/>
<path stroke="#f9650c" vector-effect="non-scaling-stroke" d="
  M 791.11 252.15
  Q 790.89 251.19 791.47 250.21
  Q 791.75 249.74 791.27 250.00
  Q 790.87 250.22 790.67 250.64
  Q 790.47 251.07 790.10 251.36
  C 788.08 252.93 786.38 254.15 783.65 254.17
  Q 769.40 254.28 757.26 250.37
  C 743.96 246.08 731.12 238.71 720.63 229.05
  C 696.09 206.45 682.93 176.04 684.70 142.26
  Q 685.00 136.43 687.97 123.74
  C 688.45 121.73 689.61 120.92 691.48 120.50"
/>
<path stroke="#f6331a" vector-effect="non-scaling-stroke" d="
  M 778.35 266.94
  Q 778.66 266.16 778.43 265.68
  Q 778.19 265.17 777.70 265.46
  Q 772.67 268.48 766.75 268.73
  Q 755.29 269.21 743.88 268.12
  Q 738.23 267.59 727.99 265.11
  Q 724.18 264.19 721.46 262.96
  Q 718.57 261.65 716.28 260.98
  Q 713.31 260.10 710.57 258.61
  C 706.98 256.67 703.45 255.06 700.25 252.52
  Q 695.78 248.99 691.46 245.30
  Q 674.86 231.14 668.04 210.40
  Q 661.18 189.55 663.41 169.01
  Q 665.64 148.47 676.32 129.46
  Q 677.05 128.16 679.00 126.25
  Q 680.56 124.72 681.54 122.80"
/>
<path stroke="#8197aa" vector-effect="non-scaling-stroke" d="
  M 259.42 227.12
  C 200.70 269.64 162.38 331.19 147.77 402.03
  Q 143.16 424.39 142.83 447.21"
/>
<path stroke="#7f8e9e" vector-effect="non-scaling-stroke" d="
  M 142.83 447.21
  Q 139.35 530.94 183.31 600.88
  A 2.12 2.11 -21.2 0 0 185.47 601.83
  Q 210.57 597.44 235.62 591.39"
/>
<path stroke="#83a4bc" vector-effect="non-scaling-stroke" d="
  M 235.62 591.39
  Q 297.66 575.69 357.32 551.60"
/>
<path stroke="#8bcbd1" vector-effect="non-scaling-stroke" d="
  M 357.32 551.60
  Q 441.17 517.80 519.48 472.27"
/>
<path stroke="#9ce9d3" vector-effect="non-scaling-stroke" d="
  M 519.48 472.27
  Q 563.82 447.15 606.06 418.71"
/>
<path stroke="#a9fdd4" vector-effect="non-scaling-stroke" d="
  M 606.06 418.71
  Q 608.30 417.55 610.40 416.13
  Q 634.18 400.02 657.07 382.79"
/>
<path stroke="#83a4bc" vector-effect="non-scaling-stroke" d="
  M 657.07 382.79
  Q 678.30 366.16 698.02 348.45"
/>
<path stroke="#89dad9" vector-effect="non-scaling-stroke" d="
  M 698.02 348.45
  Q 713.31 334.55 725.14 317.89
  Q 725.39 317.53 724.97 317.63
  Q 717.10 319.48 711.26 324.98
  Q 703.41 332.36 695.69 339.81
  Q 695.48 340.01 694.96 340.77
  Q 694.44 341.53 693.74 341.25"
/>
<path stroke="#83a4bc" vector-effect="non-scaling-stroke" d="
  M 693.74 341.25
  L 682.92 322.71
  A 0.72 0.72 0.0 0 0 681.97 322.43
  L 662.54 332.46
  A 0.55 0.54 -28.3 0 0 662.31 333.22
  Q 670.13 346.82 676.49 361.17
  A 1.40 1.39 -32.6 0 1 676.13 362.79
  L 657.24 379.38"
/>
<path stroke="#a9fdd4" vector-effect="non-scaling-stroke" d="
  M 657.24 379.38
  Q 656.67 379.66 656.37 378.97
  Q 645.19 353.60 629.30 332.08"
/>
<path stroke="#9ce9d3" vector-effect="non-scaling-stroke" d="
  M 629.30 332.08
  L 625.37 327.61"
/>
<path stroke="#f9fbc6" vector-effect="non-scaling-stroke" d="
  M 625.37 327.61
  Q 610.10 310.06 592.39 295.27"
/>
<path stroke="#fcd38f" vector-effect="non-scaling-stroke" d="
  M 592.39 295.27
  Q 555.56 265.65 510.75 251.56
  Q 508.24 250.77 505.36 250.09"
/>
<path stroke="#fde5ad" vector-effect="non-scaling-stroke" d="
  M 505.36 250.09
  Q 487.01 244.37 467.79 242.44"
/>
<path stroke="#fcb987" vector-effect="non-scaling-stroke" d="
  M 467.79 242.44
  Q 408.99 235.17 354.04 255.38"
/>
<path stroke="#f48ba6" vector-effect="non-scaling-stroke" d="
  M 354.04 255.38
  Q 308.89 272.34 273.67 308.68
  C 232.23 351.43 209.35 406.64 209.53 466.48
  Q 209.61 492.13 213.04 517.49
  Q 213.11 518.02 212.54 518.45"
/>
<path stroke="#7f8e9e" vector-effect="non-scaling-stroke" d="
  M 212.54 518.45
  L 195.49 534.48
  Q 195.13 534.82 194.95 534.35
  Q 191.01 524.06 188.47 512.24
  Q 182.51 484.53 182.54 456.61"
/>
<path stroke="#8197aa" vector-effect="non-scaling-stroke" d="
  M 182.54 456.61
  C 184.34 374.48 224.33 300.22 292.18 253.96"
/>
<path stroke="#83a4bc" vector-effect="non-scaling-stroke" d="
  M 292.18 253.96
  Q 340.60 221.86 395.76 213.76
  Q 441.90 206.99 484.56 214.56
  C 532.63 223.10 578.11 245.05 616.40 276.80
  C 626.20 284.94 633.89 290.50 643.59 296.38
  A 0.06 0.06 0.0 0 0 643.67 296.28
  C 639.54 292.20 634.97 288.05 631.41 283.96
  Q 610.50 259.93 602.71 228.87
  C 602.00 226.00 601.88 222.65 601.53 219.52
  A 1.14 1.13 -76.2 0 0 601.05 218.72
  C 526.84 167.26 429.01 155.90 343.25 184.25
  Q 298.06 199.19 259.42 227.12"
/>
<path stroke="#083d69" vector-effect="non-scaling-stroke" d="
  M 292.18 253.96
  Q 292.57 252.63 292.28 251.31
  Q 292.18 250.83 291.75 251.06
  L 290.41 251.80
  Q 290.08 251.97 290.09 251.60
  Q 290.09 251.38 290.09 251.17
  Q 290.08 250.80 289.72 250.68
  Q 287.10 249.82 285.84 247.36
  Q 285.60 246.89 285.18 246.58
  Q 282.18 244.37 279.30 241.97
  Q 278.19 241.05 276.82 240.87
  Q 276.36 240.81 276.00 240.52
  Q 274.33 239.15 272.74 237.71
  Q 272.44 237.44 270.00 236.01
  Q 268.67 235.23 267.40 233.61
  Q 266.12 231.96 262.91 230.89
  A 0.57 0.57 0.0 0 1 262.54 230.20
  L 263.01 228.48
  Q 263.27 227.52 262.39 227.96
  Q 262.02 228.15 261.93 228.50
  A 0.31 0.31 0.0 0 1 261.34 228.52
  Q 261.29 228.38 261.22 228.25
  Q 261.05 227.91 261.43 227.87
  L 262.05 227.81
  A 0.17 0.17 0.0 0 0 262.08 227.48
  Q 260.97 227.11 259.42 227.12"
/>
<path stroke="#04274b" vector-effect="non-scaling-stroke" d="
  M 182.54 456.61
  Q 182.68 456.28 182.62 455.86
  Q 182.57 455.51 182.29 455.73
  Q 181.65 456.22 181.80 456.81
  Q 181.94 457.34 181.48 457.64
  L 180.88 458.03
  Q 180.45 458.30 180.39 458.80
  L 180.05 461.51
  Q 179.92 462.55 179.87 461.50
  Q 179.87 461.34 179.87 461.18
  Q 179.87 460.71 179.41 460.59
  Q 177.57 460.14 177.66 462.16
  A 0.70 0.70 0.0 0 1 176.88 462.89
  Q 174.74 462.65 173.70 460.91
  Q 173.43 460.46 172.90 460.39
  Q 169.10 459.92 166.74 458.25
  Q 164.12 456.41 162.66 455.71
  Q 162.38 455.58 162.37 455.28
  Q 162.37 455.08 162.37 454.91
  A 0.46 0.45 -0.6 0 0 161.90 454.46
  Q 155.38 454.55 152.15 448.81
  A 1.68 1.68 0.0 0 0 149.39 448.56
  Q 148.66 449.45 148.16 449.17
  Q 147.63 448.87 147.06 449.11
  Q 145.88 449.61 145.65 450.77
  A 0.17 0.17 0.0 0 1 145.36 450.86
  L 145.10 450.60
  A 0.27 0.27 0.0 0 0 144.64 450.80
  L 144.63 451.50
  Q 144.63 451.61 144.55 451.54
  Q 144.45 451.46 144.30 451.44
  Q 144.22 451.43 144.23 451.34
  Q 144.79 448.32 142.83 447.21"
/>
<path stroke="#05345d" vector-effect="non-scaling-stroke" d="
  M 237.51 581.51
  Q 237.71 581.98 237.00 582.22
  Q 236.51 582.39 236.67 582.89
  Q 236.96 583.76 236.11 584.36
  Q 235.71 584.64 235.71 585.14
  L 235.62 591.39"
/>
<path stroke="#ef1d39" vector-effect="non-scaling-stroke" d="
  M 352.70 258.08
  L 349.64 259.95
  Q 349.23 260.21 348.74 260.14
  Q 346.25 259.81 344.52 261.69
  Q 344.24 262.00 343.85 262.14
  Q 336.37 264.78 326.64 270.13
  Q 324.56 271.28 323.42 272.27
  Q 322.98 272.66 323.01 273.24
  L 323.28 279.32
  Q 323.30 279.76 323.02 280.10
  Q 322.25 281.03 321.65 282.08
  Q 320.83 283.52 319.83 284.47
  C 304.61 299.03 289.48 312.53 278.15 330.81
  Q 260.56 359.20 252.81 391.72
  Q 251.41 397.61 249.06 411.37
  Q 246.59 425.79 243.87 440.59"
/>
<path stroke="#f22d2f" vector-effect="non-scaling-stroke" d="
  M 243.87 440.59
  L 242.27 469.80"
/>
<path stroke="#ef1d39" vector-effect="non-scaling-stroke" d="
  M 242.27 469.80
  Q 241.74 472.25 240.36 474.21
  Q 240.08 474.59 240.19 475.06
  Q 241.32 479.89 240.99 483.26
  Q 237.81 515.82 237.89 546.00
  Q 237.93 560.34 237.38 571.16
  C 237.25 573.82 236.09 576.54 235.84 579.40
  A 1.27 1.27 0.0 0 0 237.76 580.60
  Q 239.34 579.65 241.13 579.23
  Q 243.15 578.76 244.42 578.00
  Q 250.84 574.21 258.24 572.35"
/>
<path stroke="#c56b74" vector-effect="non-scaling-stroke" d="
  M 258.24 572.35
  Q 258.42 572.78 257.65 573.41
  Q 257.47 573.56 258.30 573.88"
/>
<path stroke="#7a3065" vector-effect="non-scaling-stroke" d="
  M 258.30 573.88
  L 237.51 581.51"
/>
<path stroke="#761b47" vector-effect="non-scaling-stroke" d="
  M 237.51 581.51
  Q 234.49 583.18 233.05 580.32
  Q 219.66 553.81 214.00 523.24
  Q 213.74 521.82 213.63 518.93
  Q 213.61 518.42 213.09 518.38
  Q 212.77 518.35 212.54 518.45"
/>
<path stroke="#127090" vector-effect="non-scaling-stroke" d="
  M 357.32 551.60
  L 357.28 551.03
  Q 357.24 550.53 356.80 550.28
  Q 352.99 548.21 349.09 546.37
  Q 347.55 545.64 343.74 541.54"
/>
<path stroke="#5cab9f" vector-effect="non-scaling-stroke" d="
  M 343.74 541.54
  L 363.40 532.55"
/>
<path stroke="#54848b" vector-effect="non-scaling-stroke" d="
  M 343.74 541.54
  Q 301.65 559.32 258.30 573.88"
/>
<path stroke="#de8f56" vector-effect="non-scaling-stroke" d="
  M 419.04 474.66
  Q 387.40 499.08 353.71 520.42"
/>
<path stroke="#cc8155" vector-effect="non-scaling-stroke" d="
  M 353.71 520.42
  L 335.28 531.60"
/>
<path stroke="#f6331a" vector-effect="non-scaling-stroke" d="
  M 335.28 531.60
  Q 334.51 531.28 334.29 531.00
  Q 334.13 530.80 334.49 530.13
  Q 335.04 529.12 336.12 529.05
  Q 336.52 529.03 336.33 528.67
  L 336.18 528.37
  Q 336.00 528.05 335.70 528.25
  Q 335.55 528.35 335.38 528.40
  Q 335.07 528.49 334.95 528.19
  Q 334.77 527.73 335.05 527.46
  Q 335.49 527.03 335.23 526.46
  C 334.60 525.09 334.02 523.76 332.67 522.92
  Q 330.01 521.26 327.22 519.80
  Q 326.88 519.61 326.48 519.61
  L 325.25 519.61
  Q 324.64 519.61 324.64 519.00
  L 324.64 518.43
  Q 324.64 517.94 324.24 517.65
  L 321.63 515.75
  Q 321.36 515.55 321.03 515.58
  L 319.46 515.73
  A 0.56 0.56 0.0 0 1 318.97 514.82
  Q 319.60 514.05 317.72 513.68
  Q 317.33 513.60 317.07 513.30
  L 316.47 512.62
  Q 316.17 512.26 315.70 512.22
  C 314.10 512.07 313.69 511.08 312.77 510.47
  Q 310.38 508.89 307.93 507.37
  Q 307.53 507.12 307.13 507.38
  Q 306.35 507.89 305.91 507.14
  A 0.46 0.46 0.0 0 0 305.14 507.09
  Q 304.77 507.57 304.16 507.23
  A 0.43 0.39 10.1 0 1 303.97 506.98
  L 303.83 506.35
  A 0.95 0.95 0.0 0 0 303.10 505.62
  Q 301.29 505.22 300.43 503.61
  Q 300.29 503.34 300.01 503.48
  Q 299.85 503.56 299.70 503.63
  A 0.38 0.38 0.0 0 1 299.15 503.31
  L 299.11 502.61
  Q 299.10 502.47 298.98 502.54
  L 297.92 503.13
  Q 297.54 503.34 297.41 502.92
  L 296.72 500.70
  Q 296.52 500.06 295.87 500.25
  Q 293.35 500.99 292.16 499.70
  Q 288.55 495.78 286.03 494.49
  Q 284.14 493.53 282.48 492.09
  Q 281.76 491.46 281.63 492.41
  L 281.09 496.33
  Q 281.05 496.61 280.85 496.41
  Q 280.62 496.19 280.65 495.75
  Q 282.81 465.78 283.86 436.02
  A 0.85 0.84 -18.2 0 0 282.49 435.33
  Q 274.53 441.65 267.59 448.59
  Q 263.04 453.12 244.48 469.17
  Q 244.07 469.52 243.75 470.08
  Q 242.48 472.25 242.27 469.80"
/>
<path stroke="#f73f19" vector-effect="non-scaling-stroke" d="
  M 335.55 273.27
  Q 333.92 274.91 332.03 276.78
  Q 330.37 278.41 329.03 280.70
  C 326.45 285.09 322.77 289.42 320.48 293.21
  C 304.16 320.23 294.68 350.64 289.55 381.94
  Q 289.41 382.80 287.72 390.17
  Q 286.55 395.33 287.04 400.39"
/>
<path stroke="#f74c1b" vector-effect="non-scaling-stroke" d="
  M 287.04 400.39
  L 284.99 402.93"
/>
<path stroke="#f6331a" vector-effect="non-scaling-stroke" d="
  M 284.99 402.93
  L 243.87 440.59"
/>
<path stroke="#fda037" vector-effect="non-scaling-stroke" d="
  M 467.79 242.44
  Q 467.77 242.63 467.76 242.78
  A 1.00 0.99 -17.9 0 1 467.42 243.43
  L 437.90 268.93"
/>
<path stroke="#fcb987" vector-effect="non-scaling-stroke" d="
  M 437.90 268.93
  C 424.02 267.02 412.85 277.75 414.10 291.66"
/>
<path stroke="#fc8e19" vector-effect="non-scaling-stroke" d="
  M 414.10 291.66
  Q 414.03 292.15 413.48 292.16
  Q 413.00 292.17 413.10 291.70
  Q 413.42 290.18 412.44 289.19
  Q 412.01 288.76 411.56 289.17
  L 389.61 309.67"
/>
<path stroke="#fcb987" vector-effect="non-scaling-stroke" d="
  M 389.61 309.67
  Q 382.96 307.96 375.47 309.46"
/>
<path stroke="#fc6710" vector-effect="non-scaling-stroke" d="
  M 375.47 309.46
  Q 374.96 308.27 373.59 308.31
  A 0.09 0.09 0.0 0 1 373.53 308.15
  L 373.90 307.86
  A 0.32 0.32 0.0 0 0 373.70 307.29
  Q 372.38 307.29 372.34 306.49
  Q 372.32 305.98 371.92 305.65
  Q 369.73 303.88 367.44 302.26
  Q 365.29 300.75 363.15 298.69
  Q 360.68 296.33 357.92 294.30
  Q 357.59 294.06 357.31 294.07
  Q 356.92 294.09 356.56 294.37
  Q 356.35 294.54 356.35 294.27
  Q 356.35 294.10 356.35 293.94
  A 0.21 0.21 0.0 0 0 355.99 293.79
  L 355.63 294.14
  A 0.12 0.12 0.0 0 1 355.43 294.06
  Q 355.43 293.62 355.20 293.33
  Q 355.03 293.13 354.73 293.12
  Q 354.22 293.11 353.91 293.43
  Q 353.63 293.73 353.31 293.47
  L 341.35 283.59
  A 0.31 0.31 0.0 0 1 341.58 283.04
  L 343.84 283.28
  Q 344.79 283.38 344.15 282.67
  L 335.55 273.27"
/>
<path stroke="#f74c1b" vector-effect="non-scaling-stroke" d="
  M 335.55 273.27
  L 352.70 258.08"
/>
<path stroke="#f34630" vector-effect="non-scaling-stroke" d="
  M 352.70 258.08
  Q 353.92 257.55 354.69 256.54
  Q 355.00 256.12 354.69 255.69
  Q 354.49 255.41 354.04 255.38"
/>
<path stroke="#c8715f" vector-effect="non-scaling-stroke" d="
  M 335.28 531.60
  Q 313.65 544.54 277.75 562.98
  Q 263.69 570.21 258.24 572.35"
/>
<path stroke="#48e7a9" vector-effect="non-scaling-stroke" d="
  M 629.30 332.08
  Q 625.00 335.40 624.92 337.76
  Q 624.69 344.53 623.17 351.07
  Q 620.77 361.42 620.75 361.52
  Q 615.68 386.79 606.02 410.74
  Q 604.21 415.22 606.06 418.71"
/>
<path stroke="#2bb5a6" vector-effect="non-scaling-stroke" d="
  M 519.48 472.27
  Q 519.63 470.97 519.37 470.17
  Q 519.21 469.69 518.96 470.13
  Q 518.65 470.65 518.03 470.64
  Q 517.56 470.63 517.05 470.13
  Q 512.54 465.72 507.58 461.81
  Q 507.12 461.45 507.53 461.03
  L 507.81 460.74
  Q 508.19 460.35 507.77 460.01
  L 502.86 456.01
  Q 502.58 455.79 502.23 455.79
  L 500.79 455.78
  A 0.11 0.11 0.0 0 1 500.71 455.59
  Q 500.82 455.49 500.92 455.39
  A 0.29 0.29 0.0 0 0 500.85 454.93
  L 496.97 452.69"
/>
<path stroke="#7fd7a2" vector-effect="non-scaling-stroke" d="
  M 496.97 452.69
  L 502.24 448.65"
/>
<path stroke="#6fb9a0" vector-effect="non-scaling-stroke" d="
  M 496.97 452.69
  C 454.23 483.74 411.50 510.08 363.40 532.55"
/>
<path stroke="#b1cd9b" vector-effect="non-scaling-stroke" d="
  M 363.40 532.55
  Q 357.51 526.87 349.74 527.40
  Q 348.93 527.45 349.58 526.96
  Q 351.23 525.68 352.23 523.75
  A 0.14 0.14 0.0 0 0 351.99 523.60
  Q 349.87 526.45 346.74 528.03
  Q 346.01 528.40 346.49 527.74
  Q 347.16 526.83 348.16 526.27
  Q 348.53 526.07 348.81 525.76
  L 350.88 523.49
  Q 351.20 523.14 351.65 523.03
  Q 353.65 522.54 353.71 520.42"
/>
<path stroke="#e09b55" vector-effect="non-scaling-stroke" d="
  M 467.40 435.49
  Q 443.93 455.69 419.04 474.66"
/>
<path stroke="#fb4e0f" vector-effect="non-scaling-stroke" d="
  M 419.04 474.66
  Q 419.37 472.84 418.49 471.74
  A 1.45 1.44 -15.0 0 0 417.55 471.20
  Q 412.57 470.52 408.51 467.53
  A 0.83 0.82 -50.1 0 0 407.43 467.63
  Q 406.81 468.29 406.43 467.35
  A 0.56 0.56 0.0 0 0 405.38 467.41
  L 405.05 468.57
  Q 404.83 469.35 404.11 468.99
  Q 401.95 467.88 399.84 466.81
  Q 377.75 455.51 357.94 440.57
  Q 355.83 438.98 354.17 437.49
  C 351.70 435.27 350.76 433.54 348.83 431.74
  Q 347.36 430.36 346.89 429.62
  Q 344.75 426.29 342.27 423.20
  Q 340.95 421.55 338.52 420.00
  Q 336.41 418.65 334.49 417.01
  Q 326.81 410.51 318.56 404.70
  A 0.89 0.89 0.0 0 0 317.61 404.66
  Q 316.99 405.02 316.51 404.97"
/>
<path stroke="#fc6710" vector-effect="non-scaling-stroke" d="
  M 373.43 356.77
  Q 369.49 359.27 365.99 362.24
  Q 341.07 383.34 316.51 404.97"
/>
<path stroke="#fa5b11" vector-effect="non-scaling-stroke" d="
  M 316.51 404.97
  L 285.22 432.87
  A 0.57 0.57 0.0 0 1 284.28 432.43
  L 284.99 402.93"
/>
<path stroke="#fcac86" vector-effect="non-scaling-stroke" d="
  M 375.47 309.46
  C 361.86 313.14 353.85 325.77 357.17 339.81"
/>
<path stroke="#fc6710" vector-effect="non-scaling-stroke" d="
  M 357.17 339.81
  Q 356.66 340.42 355.79 338.96
  Q 355.52 338.50 355.13 338.88
  C 353.34 340.64 351.59 342.69 349.82 344.26
  Q 318.58 372.07 287.04 400.39"
/>
<path stroke="#fc8e19" vector-effect="non-scaling-stroke" d="
  M 424.81 308.00
  Q 424.78 308.86 424.38 309.14
  Q 415.14 315.51 407.40 323.67
  Q 407.00 324.08 406.48 323.83
  L 404.62 322.93"
/>
<path stroke="#fcd38f" vector-effect="non-scaling-stroke" d="
  M 404.62 322.93
  Q 400.19 313.56 389.61 309.67"
/>
<path stroke="#fdba3f" vector-effect="non-scaling-stroke" d="
  M 505.36 250.09
  L 481.23 266.52"
/>
<path stroke="#fcaa32" vector-effect="non-scaling-stroke" d="
  M 481.23 266.52
  L 456.75 284.88
  Q 456.36 285.17 455.88 285.29
  L 454.10 285.73"
/>
<path stroke="#fde5ad" vector-effect="non-scaling-stroke" d="
  M 454.10 285.73
  Q 451.67 272.33 437.90 268.93"
/>
<path stroke="#fcac86" vector-effect="non-scaling-stroke" d="
  M 379.23 358.11
  L 373.43 356.77"
/>
<path stroke="#fcb987" vector-effect="non-scaling-stroke" d="
  M 373.43 356.77
  Q 360.56 352.77 357.17 339.81"
/>
<path stroke="#fcd38f" vector-effect="non-scaling-stroke" d="
  M 424.93 306.62
  Q 416.23 302.18 414.10 291.66"
/>
<path stroke="#99e59b" vector-effect="non-scaling-stroke" d="
  M 625.37 327.61
  Q 584.08 383.01 530.63 426.38
  Q 520.63 434.49 502.24 448.65"
/>
<path stroke="#dde995" vector-effect="non-scaling-stroke" d="
  M 502.24 448.65
  L 500.21 448.13
  Q 499.79 448.02 500.17 447.80
  Q 502.52 446.44 502.44 443.70
  Q 502.42 443.20 502.02 442.91
  C 500.46 441.79 499.56 441.33 497.66 441.06
  Q 491.89 440.24 486.13 440.84
  Q 485.75 440.88 485.73 440.50
  Q 485.67 439.61 485.28 438.88
  Q 485.12 438.58 484.77 438.60
  L 476.91 439.15
  A 0.53 0.53 0.0 0 1 476.34 438.66
  L 476.14 435.84
  Q 476.10 435.16 475.48 435.44
  Q 474.81 435.75 474.50 435.65
  Q 471.58 434.70 467.40 435.49"
/>
<path stroke="#f9a94e" vector-effect="non-scaling-stroke" d="
  M 467.40 435.49
  L 490.40 415.58"
/>
<path stroke="#f9b650" vector-effect="non-scaling-stroke" d="
  M 490.40 415.58
  Q 510.30 397.67 528.80 377.78"
/>
<path stroke="#fc6710" vector-effect="non-scaling-stroke" d="
  M 490.40 415.58
  Q 489.03 415.24 488.15 414.72
  Q 486.54 413.78 485.10 414.46
  Q 484.62 414.69 484.09 414.67
  L 482.30 414.58
  Q 482.12 414.57 482.14 414.75
  Q 482.16 414.90 482.18 415.07
  Q 482.23 415.51 481.78 415.54
  Q 481.34 415.57 480.90 415.65
  Q 480.45 415.73 480.06 415.62
  Q 469.80 412.71 459.49 409.80
  Q 458.88 409.63 459.35 409.19
  L 460.39 408.22
  Q 460.85 407.80 460.27 407.55
  C 455.87 405.68 450.70 404.47 446.82 402.82
  Q 443.45 401.38 440.13 399.78
  Q 437.08 398.31 434.12 395.69
  Q 430.57 392.53 426.88 389.54
  Q 423.08 386.47 419.88 383.15
  Q 415.74 378.87 411.43 374.75
  C 410.41 373.77 409.99 372.43 408.19 373.39
  Q 408.04 373.48 408.08 373.52
  L 408.26 373.70
  Q 408.37 373.81 408.29 373.94
  L 407.99 374.47
  Q 407.72 374.93 407.33 374.57
  L 390.31 358.62
  A 0.84 0.84 0.0 0 0 389.42 358.45
  Q 384.53 360.40 379.23 358.11"
/>
<path stroke="#fcb987" vector-effect="non-scaling-stroke" d="
  M 379.23 358.11
  Q 403.12 357.85 406.68 335.25
  Q 407.66 329.07 404.62 322.93"
/>
<path stroke="#fbc383" vector-effect="non-scaling-stroke" d="
  M 520.38 296.28
  C 509.65 298.89 507.91 313.87 519.02 316.99
  Q 525.53 318.81 530.72 312.75"
/>
<path stroke="#f8c04b" vector-effect="non-scaling-stroke" d="
  M 565.82 333.91
  Q 548.46 356.80 528.80 377.78"
/>
<path stroke="#fa7e0d" vector-effect="non-scaling-stroke" d="
  M 528.80 377.78
  L 526.98 378.41
  Q 526.55 378.56 526.18 378.30
  Q 520.56 374.38 514.19 371.96
  Q 506.73 369.13 505.99 368.82
  Q 501.92 367.13 497.75 365.70
  Q 494.24 364.50 482.63 358.15
  A 0.90 0.90 0.0 0 0 481.71 358.18
  Q 480.91 358.68 480.60 357.72
  A 1.55 1.52 9.8 0 0 480.04 356.94
  Q 478.72 355.95 477.46 354.86
  Q 476.90 354.38 474.98 353.27
  Q 473.30 352.31 472.10 350.26
  Q 471.58 349.39 470.31 348.76
  Q 469.93 348.57 469.71 348.19
  Q 468.67 346.40 466.48 346.21
  Q 466.06 346.17 466.09 345.76
  Q 466.12 345.40 465.87 345.14
  Q 456.18 334.96 446.39 324.85
  Q 446.22 324.67 445.87 324.64
  Q 445.49 324.60 445.33 324.26
  Q 444.09 321.63 442.03 319.61
  Q 441.65 319.24 441.49 318.75
  Q 439.92 313.91 435.89 310.88
  A 0.82 0.76 63.0 0 0 435.45 310.72
  L 430.45 310.53
  Q 429.88 310.51 429.43 310.15
  Q 427.39 308.54 424.81 308.00"
/>
<path stroke="#fb9815" vector-effect="non-scaling-stroke" d="
  M 424.81 308.00
  Q 424.49 307.82 424.31 307.59
  Q 423.98 307.15 424.46 306.88
  L 424.93 306.62"
/>
<path stroke="#fbc383" vector-effect="non-scaling-stroke" d="
  M 424.93 306.62
  C 440.50 313.23 455.07 302.47 454.10 285.73"
/>
<path stroke="#f9d058" vector-effect="non-scaling-stroke" d="
  M 592.39 295.27
  C 585.16 307.99 575.83 320.53 565.82 333.91"
/>
<path stroke="#fb9815" vector-effect="non-scaling-stroke" d="
  M 565.82 333.91
  Q 558.30 331.34 552.22 326.42
  Q 551.88 326.14 551.88 325.70
  L 551.88 324.58
  A 0.92 0.91 14.1 0 0 551.39 323.77
  L 538.54 317.07
  Q 538.09 316.84 537.60 316.85
  Q 534.83 316.94 532.36 315.66
  Q 532.17 315.57 532.08 315.37
  Q 531.98 315.16 531.93 315.02
  Q 531.90 314.95 531.88 315.02
  Q 531.81 315.31 531.37 315.44
  Q 530.50 315.70 530.93 314.90
  L 531.37 314.09
  A 0.11 0.11 0.0 0 0 531.26 313.93
  Q 530.48 314.03 530.72 312.75"
/>
<path stroke="#fcd38f" vector-effect="non-scaling-stroke" d="
  M 530.72 312.75
  C 534.95 304.46 529.77 295.61 520.38 296.28"
/>
<path stroke="#fb9815" vector-effect="non-scaling-stroke" d="
  M 520.38 296.28
  Q 520.82 294.43 518.37 295.35
  A 0.38 0.32 17.7 0 1 518.00 294.75
  Q 518.14 294.69 518.27 294.62
  Q 518.41 294.56 518.28 294.48
  Q 513.10 291.19 508.79 286.87
  Q 505.36 283.43 502.79 281.62
  Q 492.00 274.02 481.23 266.52"
/>
<path stroke="#2fa293" vector-effect="non-scaling-stroke" d="
  M 657.07 382.79
  Q 655.77 382.60 657.24 379.38"
/>
<path stroke="#0f7f98" vector-effect="non-scaling-stroke" d="
  M 698.02 348.45
  Q 696.69 342.75 693.74 341.25"
/>
<path stroke="#80b1cc" vector-effect="non-scaling-stroke" d="
  M 736.25 346.50
  Q 717.02 368.45 694.96 387.86"
/>
<path stroke="#8197aa" vector-effect="non-scaling-stroke" d="
  M 694.96 387.86
  L 668.50 409.94"
/>
<path stroke="#89dad9" vector-effect="non-scaling-stroke" d="
  M 668.50 409.94
  L 651.53 423.11"
/>
<path stroke="#9aeedf" vector-effect="non-scaling-stroke" d="
  M 651.53 423.11
  Q 647.36 425.82 636.68 433.67
  Q 613.71 450.55 584.45 468.66"
/>
<path stroke="#89dad9" vector-effect="non-scaling-stroke" d="
  M 584.45 468.66
  L 537.17 497.88"
/>
<path stroke="#82bfd1" vector-effect="non-scaling-stroke" d="
  M 537.17 497.88
  Q 490.17 526.91 441.34 552.26"
/>
<path stroke="#7f8e9e" vector-effect="non-scaling-stroke" d="
  M 441.34 552.26
  Q 430.95 557.29 420.54 562.07
  C 415.76 564.26 412.50 565.25 407.11 564.12
  Q 403.51 563.36 400.14 562.33
  A 3.31 3.29 -48.1 0 0 397.90 562.46
  Q 368.91 574.78 339.17 586.34
  C 286.80 606.71 232.45 622.95 177.17 633.19
  C 165.20 635.41 154.35 636.56 142.26 637.55
  C 128.40 638.68 107.74 638.40 96.21 630.05
  C 86.92 623.33 84.56 612.73 88.87 602.13
  C 97.23 581.58 113.77 563.13 127.82 548.67
  C 128.78 547.68 130.28 547.42 129.58 545.48
  Q 122.90 527.01 119.21 507.86
  A 0.42 0.42 0.0 0 0 118.52 507.62
  C 87.14 534.83 57.95 568.06 40.73 606.21
  C 30.92 627.94 27.23 657.82 50.48 671.53
  C 61.16 677.82 76.31 680.25 89.26 680.27
  Q 108.82 680.29 128.24 677.56
  Q 178.90 670.43 227.89 655.37
  Q 228.38 655.21 228.75 655.57
  Q 244.32 670.30 258.08 680.90
  C 346.83 749.21 468.83 760.54 568.57 709.35
  C 629.39 678.13 675.26 625.07 699.19 561.25"
/>
<path stroke="#8197aa" vector-effect="non-scaling-stroke" d="
  M 699.19 561.25
  Q 712.67 525.63 715.73 490.26
  Q 718.89 453.72 713.05 414.74
  Q 712.13 408.59 707.85 391.94"
/>
<path stroke="#80b1cc" vector-effect="non-scaling-stroke" d="
  M 707.85 391.94
  Q 707.84 390.45 708.29 390.03
  Q 726.39 373.07 743.34 355.10"
/>
<path stroke="#93d4dd" vector-effect="non-scaling-stroke" d="
  M 743.34 355.10
  Q 765.53 331.25 782.18 303.41
  C 782.79 302.38 784.07 301.22 784.73 299.98
  Q 785.15 299.20 784.35 299.58
  Q 775.81 303.66 766.85 306.72
  C 765.67 307.12 765.07 307.94 764.47 308.91
  Q 752.04 328.91 736.25 346.50"
/>
<path stroke="#1787ac" vector-effect="non-scaling-stroke" d="
  M 743.34 355.10
  L 736.25 346.50"
/>
<path stroke="#054a79" vector-effect="non-scaling-stroke" d="
  M 707.85 391.94
  Q 702.96 391.13 698.66 386.30
  A 0.75 0.75 0.0 0 0 697.70 386.16
  L 694.96 387.86"
/>
<path stroke="#04274b" vector-effect="non-scaling-stroke" d="
  M 699.19 561.25
  Q 698.68 561.37 698.51 560.19
  Q 698.46 559.81 698.18 560.06
  Q 697.95 560.26 697.55 560.19
  Q 696.82 560.06 697.26 560.65
  L 697.78 561.37
  Q 697.99 561.66 697.80 561.97
  L 697.42 562.59
  A 0.26 0.26 0.0 0 1 697.01 562.63
  L 696.34 561.90
  A 0.49 0.49 0.0 0 0 695.57 561.96
  Q 694.65 563.32 693.28 563.94
  Q 693.10 564.02 690.71 565.02
  Q 688.96 565.75 686.25 565.99
  Q 681.22 566.41 674.41 570.77
  Q 674.07 570.98 673.27 571.84
  Q 672.60 572.57 671.62 572.84
  Q 671.20 572.96 670.97 573.32
  Q 669.47 575.71 666.99 577.02
  Q 666.34 577.36 666.31 576.62
  L 666.19 573.63
  A 0.98 0.98 0.0 0 0 664.36 573.17
  Q 663.63 574.40 661.86 575.53
  Q 658.58 577.62 656.50 580.82
  Q 655.30 582.69 653.00 581.56
  Q 652.62 581.37 652.30 581.65
  L 650.07 583.57
  Q 649.67 583.92 649.54 583.40
  L 648.88 580.80
  A 0.51 0.51 0.0 0 0 648.03 580.56
  Q 647.44 581.15 647.27 580.62
  A 0.28 0.28 0.0 0 0 646.80 580.52
  L 645.85 581.56
  A 0.34 0.34 0.0 0 0 646.10 582.13
  L 646.57 582.13
  A 0.60 0.58 81.2 0 1 647.13 582.55
  L 647.24 582.91
  Q 647.41 583.48 646.82 583.55
  L 645.25 583.76
  Q 644.80 583.81 644.65 584.24
  Q 643.96 586.25 644.91 587.67
  Q 645.08 587.93 644.78 587.90
  L 643.79 587.80
  A 0.18 0.18 0.0 0 0 643.59 587.95
  L 643.44 588.96
  Q 643.35 589.54 642.79 589.40
  L 641.95 589.19
  Q 641.57 589.10 641.31 589.39
  Q 640.53 590.28 640.30 591.39
  Q 640.18 592.00 639.63 592.29
  Q 638.15 593.10 637.87 594.80
  Q 637.83 595.08 637.56 595.16
  L 636.40 595.52"
/>
<path stroke="#186d8a" vector-effect="non-scaling-stroke" d="
  M 636.40 595.52
  Q 650.25 574.44 658.80 551.33"
/>
<path stroke="#0e7386" vector-effect="non-scaling-stroke" d="
  M 658.80 551.33
  Q 677.52 503.03 675.19 450.75
  Q 674.26 429.76 668.50 409.94"
/>
<path stroke="#03416d" vector-effect="non-scaling-stroke" d="
  M 389.71 590.47
  C 352.77 610.72 314.06 626.76 274.39 640.79
  A 0.50 0.49 55.9 0 0 274.23 641.63
  Q 290.50 655.84 309.03 665.76"
/>
<path stroke="#054f72" vector-effect="non-scaling-stroke" d="
  M 309.03 665.76
  C 316.13 669.88 324.55 675.37 332.41 676.88"
/>
<path stroke="#03416d" vector-effect="non-scaling-stroke" d="
  M 332.41 676.88
  C 333.95 678.06 335.67 679.29 337.46 680.09
  C 364.03 691.97 393.28 698.19 422.27 699.65"
/>
<path stroke="#16647e" vector-effect="non-scaling-stroke" d="
  M 422.27 699.65
  Q 453.69 701.75 480.10 696.84
  Q 534.21 686.77 580.93 653.44
  Q 613.14 630.47 636.40 595.52"
/>
<path stroke="#1787ac" vector-effect="non-scaling-stroke" d="
  M 422.27 699.65
  Q 421.27 699.02 420.10 698.89
  A 0.41 0.41 0.0 0 1 420.12 698.08
  Q 438.20 696.79 455.94 691.88
  Q 463.03 689.92 470.16 688.02
  Q 478.52 685.79 484.26 683.77
  Q 538.74 664.53 583.04 626.73"
/>
<path stroke="#20afb9" vector-effect="non-scaling-stroke" d="
  M 658.80 551.33
  Q 659.09 550.02 658.36 549.49
  A 0.65 0.64 37.8 0 0 657.49 549.59
  L 634.52 576.75"
/>
<path stroke="#0ea3b1" vector-effect="non-scaling-stroke" d="
  M 634.52 576.75
  Q 634.94 574.52 636.78 572.99
  A 0.15 0.15 0.0 0 0 636.75 572.75
  Q 636.61 572.68 636.43 572.64
  A 0.23 0.23 0.0 0 1 636.48 572.18
  L 637.27 572.16
  Q 638.01 572.14 638.26 571.44
  L 639.45 568.21
  Q 639.60 567.81 639.48 567.40
  Q 638.73 564.80 638.83 562.04
  Q 638.83 561.86 639.01 561.87
  Q 639.14 561.87 639.27 561.87
  Q 639.48 561.88 639.46 561.66
  Q 639.33 560.75 638.67 560.86
  Q 637.90 560.98 638.23 560.28
  L 638.53 559.62
  Q 638.82 559.00 638.15 558.86
  L 621.68 555.16
  Q 621.24 555.06 621.04 554.65
  Q 619.93 552.41 617.29 552.70
  Q 617.12 552.72 617.12 552.54
  Q 617.12 552.38 617.12 552.21
  A 0.39 0.39 0.0 0 0 616.69 551.81
  Q 611.27 552.30 606.34 550.15
  Q 605.83 549.92 605.29 550.06
  Q 604.50 550.26 604.08 549.60
  Q 603.81 549.18 603.32 549.09
  L 592.94 547.18
  A 0.60 0.60 0.0 0 0 592.26 547.56
  Q 591.52 549.55 590.49 549.21"
/>
<path stroke="#27c9bb" vector-effect="non-scaling-stroke" d="
  M 590.49 549.21
  C 615.56 516.64 635.34 477.98 648.77 439.24
  C 649.97 435.77 650.74 431.75 651.89 428.01
  Q 652.32 426.60 651.53 423.11"
/>
<path stroke="#0672a0" vector-effect="non-scaling-stroke" d="
  M 391.22 647.02
  Q 366.77 657.38 340.91 662.56
  Q 333.75 663.99 325.03 664.66
  Q 317.17 665.27 309.03 665.76"
/>
<path stroke="#1995b1" vector-effect="non-scaling-stroke" d="
  M 506.45 571.43
  Q 476.54 599.37 441.84 621.01"
/>
<path stroke="#0672a0" vector-effect="non-scaling-stroke" d="
  M 441.84 621.01
  Q 442.23 619.43 440.64 618.37
  Q 440.52 618.30 440.45 618.17
  Q 440.17 617.67 440.70 617.97
  A 0.13 0.13 0.0 0 0 440.87 617.79
  Q 439.98 616.49 438.74 616.79
  Q 436.39 617.38 435.90 615.88
  Q 435.75 615.42 435.28 615.40
  L 434.15 615.34
  Q 433.63 615.31 433.27 614.95
  Q 432.15 613.87 431.08 612.74
  Q 430.16 611.78 428.91 611.10
  Q 418.49 605.45 408.10 599.74
  Q 403.79 597.37 399.35 595.66
  Q 394.86 593.93 390.38 592.17
  Q 389.97 592.01 389.89 591.57
  L 389.71 590.47"
/>
<path stroke="#054f72" vector-effect="non-scaling-stroke" d="
  M 389.71 590.47
  Q 418.92 574.60 447.16 556.54
  A 0.45 0.45 0.0 0 0 447.03 555.73
  L 442.80 554.70
  A 0.75 0.75 0.0 0 1 442.23 553.97
  Q 442.22 552.36 441.34 552.26"
/>
<path stroke="#0672a0" vector-effect="non-scaling-stroke" d="
  M 332.41 676.88
  Q 357.12 676.29 371.75 674.73
  Q 394.30 672.34 420.49 664.86"
/>
<path stroke="#189db5" vector-effect="non-scaling-stroke" d="
  M 634.52 576.75
  Q 610.84 604.07 583.04 626.73"
/>
<path stroke="#057aa4" vector-effect="non-scaling-stroke" d="
  M 583.04 626.73
  Q 582.01 622.81 584.01 620.87
  Q 584.38 620.51 584.38 619.99
  L 584.38 617.50
  Q 584.38 616.88 585.00 616.88
  L 586.51 616.88
  A 0.45 0.45 0.0 0 0 586.91 616.23
  Q 585.64 613.69 582.98 612.76
  Q 582.42 612.56 581.88 612.84
  L 580.38 613.61
  Q 580.01 613.80 579.64 613.60
  C 578.26 612.85 577.00 611.88 575.45 611.53
  Q 565.90 609.42 556.52 606.57
  Q 555.95 606.39 555.87 606.99
  Q 555.83 607.25 555.59 607.34
  A 0.35 0.35 0.0 0 1 555.13 607.14
  L 554.73 606.08
  A 0.43 0.43 0.0 0 0 553.90 606.20
  L 553.80 607.15
  A 0.31 0.30 -81.1 0 1 553.43 607.43
  Q 552.81 607.29 552.86 606.81
  Q 552.88 606.51 552.61 606.41
  Q 551.83 606.13 552.21 606.96
  Q 552.68 607.97 551.68 607.48
  L 547.00 605.19
  A 0.52 0.45 49.2 0 0 546.66 605.14
  Q 545.02 605.46 543.70 604.63
  Q 543.28 604.37 542.79 604.30
  Q 540.80 604.04 540.02 602.08"
/>
<path stroke="#1fb7b6" vector-effect="non-scaling-stroke" d="
  M 590.49 549.21
  Q 568.45 578.72 540.02 602.08"
/>
<path stroke="#1ea1ae" vector-effect="non-scaling-stroke" d="
  M 540.02 602.08
  L 537.83 603.83"
/>
<path stroke="#31c3bf" vector-effect="non-scaling-stroke" d="
  M 537.83 603.83
  Q 533.35 597.17 527.16 591.78
  Q 526.74 591.41 526.84 590.86
  Q 526.99 590.00 526.52 589.29
  Q 526.15 588.73 526.80 588.88
  L 527.53 589.04
  A 0.16 0.16 0.0 0 0 527.68 588.78
  L 518.01 578.10
  Q 517.61 577.66 517.19 578.08
  L 516.45 578.83
  Q 516.03 579.24 515.64 578.81
  Q 511.63 574.39 506.45 571.43"
/>
<path stroke="#20afb2" vector-effect="non-scaling-stroke" d="
  M 506.45 571.43
  Q 532.97 546.18 554.30 516.48"
/>
<path stroke="#27c9bb" vector-effect="non-scaling-stroke" d="
  M 554.30 516.48
  Q 559.74 509.49 563.14 504.40
  Q 573.60 488.76 584.89 469.59
  Q 585.15 469.16 585.07 469.06
  Q 584.93 468.89 584.45 468.66"
/>
<path stroke="#1787ac" vector-effect="non-scaling-stroke" d="
  M 537.83 603.83
  Q 536.41 605.15 532.87 607.87
  Q 481.77 647.20 420.49 664.86"
/>
<path stroke="#1995b1" vector-effect="non-scaling-stroke" d="
  M 420.49 664.86
  L 417.48 664.62
  A 1.05 1.03 -13.1 0 1 416.70 664.14
  Q 414.35 660.26 409.85 659.63
  Q 409.35 659.56 409.02 659.18
  Q 407.36 657.28 406.01 656.73
  Q 400.46 654.49 394.25 650.51
  Q 392.51 649.39 392.00 647.78
  Q 391.92 647.54 391.68 647.60
  L 391.19 647.71
  Q 390.57 647.85 390.96 647.34
  L 391.22 647.02"
/>
<path stroke="#1787ac" vector-effect="non-scaling-stroke" d="
  M 391.22 647.02
  Q 417.60 636.36 441.84 621.01"
/>
<path stroke="#0f9bad" vector-effect="non-scaling-stroke" d="
  M 554.30 516.48
  C 555.11 510.60 550.14 504.63 545.66 501.47
  Q 544.41 500.59 541.29 496.85
  Q 540.90 496.38 540.37 496.69
  L 537.62 498.25
  Q 537.37 498.40 537.24 498.13
  Q 537.19 498.02 537.17 497.88"
/>
<path stroke="#fcd38f" vector-effect="non-scaling-stroke" d="
  M 774.0261 154.8118
  A 10.57 9.60 44.6 0 0 773.2407 140.5545
  A 10.57 9.60 44.6 0 0 758.9739 139.9682
  A 10.57 9.60 44.6 0 0 759.7593 154.2255
  A 10.57 9.60 44.6 0 0 774.0261 154.8118"
/>
</g>
<path fill="#fcfefd" d="
  M 0.00 0.00
  L 877.00 0.00
  L 877.00 877.00
  L 0.00 877.00
  L 0.00 0.00
  Z
  M 690.72 119.08
  L 681.54 122.80
  C 630.90 145.99 614.20 209.34 646.74 254.25
  C 668.78 284.67 709.90 298.56 745.60 286.19
  Q 763.69 279.92 778.35 266.94
  Q 785.52 260.20 791.11 252.15
  Q 816.16 211.26 798.69 166.89
  C 791.55 149.94 779.91 135.89 763.85 126.87
  Q 735.63 111.01 702.25 116.02
  Q 696.97 116.82 690.72 119.08
  Z
  M 259.42 227.12
  C 200.70 269.64 162.38 331.19 147.77 402.03
  Q 143.16 424.39 142.83 447.21
  Q 139.35 530.94 183.31 600.88
  A 2.12 2.11 -21.2 0 0 185.47 601.83
  Q 210.57 597.44 235.62 591.39
  Q 297.66 575.69 357.32 551.60
  Q 441.17 517.80 519.48 472.27
  Q 563.82 447.15 606.06 418.71
  Q 608.30 417.55 610.40 416.13
  Q 634.18 400.02 657.07 382.79
  Q 678.30 366.16 698.02 348.45
  Q 713.31 334.55 725.14 317.89
  Q 725.39 317.53 724.97 317.63
  Q 717.10 319.48 711.26 324.98
  Q 703.41 332.36 695.69 339.81
  Q 695.48 340.01 694.96 340.77
  Q 694.44 341.53 693.74 341.25
  L 682.92 322.71
  A 0.72 0.72 0.0 0 0 681.97 322.43
  L 662.54 332.46
  A 0.55 0.54 -28.3 0 0 662.31 333.22
  Q 670.13 346.82 676.49 361.17
  A 1.40 1.39 -32.6 0 1 676.13 362.79
  L 657.24 379.38
  Q 656.67 379.66 656.37 378.97
  Q 645.19 353.60 629.30 332.08
  L 625.37 327.61
  Q 610.10 310.06 592.39 295.27
  Q 555.56 265.65 510.75 251.56
  Q 508.24 250.77 505.36 250.09
  Q 487.01 244.37 467.79 242.44
  Q 408.99 235.17 354.04 255.38
  Q 308.89 272.34 273.67 308.68
  C 232.23 351.43 209.35 406.64 209.53 466.48
  Q 209.61 492.13 213.04 517.49
  Q 213.11 518.02 212.54 518.45
  L 195.49 534.48
  Q 195.13 534.82 194.95 534.35
  Q 191.01 524.06 188.47 512.24
  Q 182.51 484.53 182.54 456.61
  C 184.34 374.48 224.33 300.22 292.18 253.96
  Q 340.60 221.86 395.76 213.76
  Q 441.90 206.99 484.56 214.56
  C 532.63 223.10 578.11 245.05 616.40 276.80
  C 626.20 284.94 633.89 290.50 643.59 296.38
  A 0.06 0.06 0.0 0 0 643.67 296.28
  C 639.54 292.20 634.97 288.05 631.41 283.96
  Q 610.50 259.93 602.71 228.87
  C 602.00 226.00 601.88 222.65 601.53 219.52
  A 1.14 1.13 -76.2 0 0 601.05 218.72
  C 526.84 167.26 429.01 155.90 343.25 184.25
  Q 298.06 199.19 259.42 227.12
  Z
  M 736.25 346.50
  Q 717.02 368.45 694.96 387.86
  L 668.50 409.94
  L 651.53 423.11
  Q 647.36 425.82 636.68 433.67
  Q 613.71 450.55 584.45 468.66
  L 537.17 497.88
  Q 490.17 526.91 441.34 552.26
  Q 430.95 557.29 420.54 562.07
  C 415.76 564.26 412.50 565.25 407.11 564.12
  Q 403.51 563.36 400.14 562.33
  A 3.31 3.29 -48.1 0 0 397.90 562.46
  Q 368.91 574.78 339.17 586.34
  C 286.80 606.71 232.45 622.95 177.17 633.19
  C 165.20 635.41 154.35 636.56 142.26 637.55
  C 128.40 638.68 107.74 638.40 96.21 630.05
  C 86.92 623.33 84.56 612.73 88.87 602.13
  C 97.23 581.58 113.77 563.13 127.82 548.67
  C 128.78 547.68 130.28 547.42 129.58 545.48
  Q 122.90 527.01 119.21 507.86
  A 0.42 0.42 0.0 0 0 118.52 507.62
  C 87.14 534.83 57.95 568.06 40.73 606.21
  C 30.92 627.94 27.23 657.82 50.48 671.53
  C 61.16 677.82 76.31 680.25 89.26 680.27
  Q 108.82 680.29 128.24 677.56
  Q 178.90 670.43 227.89 655.37
  Q 228.38 655.21 228.75 655.57
  Q 244.32 670.30 258.08 680.90
  C 346.83 749.21 468.83 760.54 568.57 709.35
  C 629.39 678.13 675.26 625.07 699.19 561.25
  Q 712.67 525.63 715.73 490.26
  Q 718.89 453.72 713.05 414.74
  Q 712.13 408.59 707.85 391.94
  Q 707.84 390.45 708.29 390.03
  Q 726.39 373.07 743.34 355.10
  Q 765.53 331.25 782.18 303.41
  C 782.79 302.38 784.07 301.22 784.73 299.98
  Q 785.15 299.20 784.35 299.58
  Q 775.81 303.66 766.85 306.72
  C 765.67 307.12 765.07 307.94 764.47 308.91
  Q 752.04 328.91 736.25 346.50
  Z"
/>
<path fill="#fca821" d="
  M 798.69 166.89
  Q 798.11 166.91 798.11 167.97
  Q 798.11 168.47 798.40 169.09
  Q 800.38 173.37 800.41 177.26
  Q 800.42 178.30 799.49 178.74
  Q 798.06 179.42 798.06 179.43
  Q 791.98 183.43 785.26 186.16
  Q 783.19 187.00 778.50 189.38
  Q 774.24 191.54 769.42 192.30
  Q 768.94 192.38 768.56 192.08
  Q 767.81 191.49 767.01 191.78
  Q 766.54 191.96 766.05 191.93
  C 762.82 191.73 759.24 192.50 756.46 192.26
  Q 749.20 191.63 743.09 187.89
  C 738.77 185.25 731.91 180.11 728.85 175.76
  Q 726.51 172.45 724.66 170.84
  Q 724.29 170.52 724.18 170.04
  Q 723.84 168.58 722.42 166.22
  Q 716.95 157.10 715.27 144.95
  Q 715.24 144.76 715.05 144.76
  Q 714.91 144.76 714.76 144.76
  Q 714.53 144.76 714.57 144.53
  Q 714.98 142.47 713.35 141.22
  Q 713.00 140.95 712.93 140.51
  L 709.75 118.71
  A 0.96 0.95 -82.6 0 0 709.19 117.98
  Q 706.23 116.71 703.49 117.12
  Q 698.17 117.94 691.48 120.50
  L 690.72 119.08
  Q 696.97 116.82 702.25 116.02
  Q 735.63 111.01 763.85 126.87
  C 779.91 135.89 791.55 149.94 798.69 166.89
  Z
  M 774.0261 154.8118
  A 10.57 9.60 44.6 0 0 773.2407 140.5545
  A 10.57 9.60 44.6 0 0 758.9739 139.9682
  A 10.57 9.60 44.6 0 0 759.7593 154.2255
  A 10.57 9.60 44.6 0 0 774.0261 154.8118
  Z"
/>
<path fill="#f98808" d="
  M 798.69 166.89
  Q 816.16 211.26 791.11 252.15
  Q 790.89 251.19 791.47 250.21
  Q 791.75 249.74 791.27 250.00
  Q 790.87 250.22 790.67 250.64
  Q 790.47 251.07 790.10 251.36
  C 788.08 252.93 786.38 254.15 783.65 254.17
  Q 769.40 254.28 757.26 250.37
  C 743.96 246.08 731.12 238.71 720.63 229.05
  C 696.09 206.45 682.93 176.04 684.70 142.26
  Q 685.00 136.43 687.97 123.74
  C 688.45 121.73 689.61 120.92 691.48 120.50
  Q 698.17 117.94 703.49 117.12
  Q 706.23 116.71 709.19 117.98
  A 0.96 0.95 -82.6 0 1 709.75 118.71
  L 712.93 140.51
  Q 713.00 140.95 713.35 141.22
  Q 714.98 142.47 714.57 144.53
  Q 714.53 144.76 714.76 144.76
  Q 714.91 144.76 715.05 144.76
  Q 715.24 144.76 715.27 144.95
  Q 716.95 157.10 722.42 166.22
  Q 723.84 168.58 724.18 170.04
  Q 724.29 170.52 724.66 170.84
  Q 726.51 172.45 728.85 175.76
  C 731.91 180.11 738.77 185.25 743.09 187.89
  Q 749.20 191.63 756.46 192.26
  C 759.24 192.50 762.82 191.73 766.05 191.93
  Q 766.54 191.96 767.01 191.78
  Q 767.81 191.49 768.56 192.08
  Q 768.94 192.38 769.42 192.30
  Q 774.24 191.54 778.50 189.38
  Q 783.19 187.00 785.26 186.16
  Q 791.98 183.43 798.06 179.43
  Q 798.06 179.42 799.49 178.74
  Q 800.42 178.30 800.41 177.26
  Q 800.38 173.37 798.40 169.09
  Q 798.11 168.47 798.11 167.97
  Q 798.11 166.91 798.69 166.89
  Z"
/>
<path fill="#f94210" d="
  M 690.72 119.08
  L 691.48 120.50
  C 689.61 120.92 688.45 121.73 687.97 123.74
  Q 685.00 136.43 684.70 142.26
  C 682.93 176.04 696.09 206.45 720.63 229.05
  C 731.12 238.71 743.96 246.08 757.26 250.37
  Q 769.40 254.28 783.65 254.17
  C 786.38 254.15 788.08 252.93 790.10 251.36
  Q 790.47 251.07 790.67 250.64
  Q 790.87 250.22 791.27 250.00
  Q 791.75 249.74 791.47 250.21
  Q 790.89 251.19 791.11 252.15
  Q 785.52 260.20 778.35 266.94
  Q 778.66 266.16 778.43 265.68
  Q 778.19 265.17 777.70 265.46
  Q 772.67 268.48 766.75 268.73
  Q 755.29 269.21 743.88 268.12
  Q 738.23 267.59 727.99 265.11
  Q 724.18 264.19 721.46 262.96
  Q 718.57 261.65 716.28 260.98
  Q 713.31 260.10 710.57 258.61
  C 706.98 256.67 703.45 255.06 700.25 252.52
  Q 695.78 248.99 691.46 245.30
  Q 674.86 231.14 668.04 210.40
  Q 661.18 189.55 663.41 169.01
  Q 665.64 148.47 676.32 129.46
  Q 677.05 128.16 679.00 126.25
  Q 680.56 124.72 681.54 122.80
  L 690.72 119.08
  Z"
/>
<path fill="#f22324" d="
  M 681.54 122.80
  Q 680.56 124.72 679.00 126.25
  Q 677.05 128.16 676.32 129.46
  Q 665.64 148.47 663.41 169.01
  Q 661.18 189.55 668.04 210.40
  Q 674.86 231.14 691.46 245.30
  Q 695.78 248.99 700.25 252.52
  C 703.45 255.06 706.98 256.67 710.57 258.61
  Q 713.31 260.10 716.28 260.98
  Q 718.57 261.65 721.46 262.96
  Q 724.18 264.19 727.99 265.11
  Q 738.23 267.59 743.88 268.12
  Q 755.29 269.21 766.75 268.73
  Q 772.67 268.48 777.70 265.46
  Q 778.19 265.17 778.43 265.68
  Q 778.66 266.16 778.35 266.94
  Q 763.69 279.92 745.60 286.19
  C 709.90 298.56 668.78 284.67 646.74 254.25
  C 614.20 209.34 630.90 145.99 681.54 122.80
  Z"
/>
<ellipse fill="#fcfefd" cx="0.00" cy="0.00" transform="translate(766.50,147.39) rotate(44.6)" rx="10.57" ry="9.60"/>
<path fill="#09497b" d="
  M 292.18 253.96
  Q 292.57 252.63 292.28 251.31
  Q 292.18 250.83 291.75 251.06
  L 290.41 251.80
  Q 290.08 251.97 290.09 251.60
  Q 290.09 251.38 290.09 251.17
  Q 290.08 250.80 289.72 250.68
  Q 287.10 249.82 285.84 247.36
  Q 285.60 246.89 285.18 246.58
  Q 282.18 244.37 279.30 241.97
  Q 278.19 241.05 276.82 240.87
  Q 276.36 240.81 276.00 240.52
  Q 274.33 239.15 272.74 237.71
  Q 272.44 237.44 270.00 236.01
  Q 268.67 235.23 267.40 233.61
  Q 266.12 231.96 262.91 230.89
  A 0.57 0.57 0.0 0 1 262.54 230.20
  L 263.01 228.48
  Q 263.27 227.52 262.39 227.96
  Q 262.02 228.15 261.93 228.50
  A 0.31 0.31 0.0 0 1 261.34 228.52
  Q 261.29 228.38 261.22 228.25
  Q 261.05 227.91 261.43 227.87
  L 262.05 227.81
  A 0.17 0.17 0.0 0 0 262.08 227.48
  Q 260.97 227.11 259.42 227.12
  Q 298.06 199.19 343.25 184.25
  C 429.01 155.90 526.84 167.26 601.05 218.72
  A 1.14 1.13 -76.2 0 1 601.53 219.52
  C 601.88 222.65 602.00 226.00 602.71 228.87
  Q 610.50 259.93 631.41 283.96
  C 634.97 288.05 639.54 292.20 643.67 296.28
  A 0.06 0.06 0.0 0 1 643.59 296.38
  C 633.89 290.50 626.20 284.94 616.40 276.80
  C 578.11 245.05 532.63 223.10 484.56 214.56
  Q 441.90 206.99 395.76 213.76
  Q 340.60 221.86 292.18 253.96
  Z"
/>
<path fill="#063057" d="
  M 259.42 227.12
  Q 260.97 227.11 262.08 227.48
  A 0.17 0.17 0.0 0 1 262.05 227.81
  L 261.43 227.87
  Q 261.05 227.91 261.22 228.25
  Q 261.29 228.38 261.34 228.52
  A 0.31 0.31 0.0 0 0 261.93 228.50
  Q 262.02 228.15 262.39 227.96
  Q 263.27 227.52 263.01 228.48
  L 262.54 230.20
  A 0.57 0.57 0.0 0 0 262.91 230.89
  Q 266.12 231.96 267.40 233.61
  Q 268.67 235.23 270.00 236.01
  Q 272.44 237.44 272.74 237.71
  Q 274.33 239.15 276.00 240.52
  Q 276.36 240.81 276.82 240.87
  Q 278.19 241.05 279.30 241.97
  Q 282.18 244.37 285.18 246.58
  Q 285.60 246.89 285.84 247.36
  Q 287.10 249.82 289.72 250.68
  Q 290.08 250.80 290.09 251.17
  Q 290.09 251.38 290.09 251.60
  Q 290.08 251.97 290.41 251.80
  L 291.75 251.06
  Q 292.18 250.83 292.28 251.31
  Q 292.57 252.63 292.18 253.96
  C 224.33 300.22 184.34 374.48 182.54 456.61
  Q 182.68 456.28 182.62 455.86
  Q 182.57 455.51 182.29 455.73
  Q 181.65 456.22 181.80 456.81
  Q 181.94 457.34 181.48 457.64
  L 180.88 458.03
  Q 180.45 458.30 180.39 458.80
  L 180.05 461.51
  Q 179.92 462.55 179.87 461.50
  Q 179.87 461.34 179.87 461.18
  Q 179.87 460.71 179.41 460.59
  Q 177.57 460.14 177.66 462.16
  A 0.70 0.70 0.0 0 1 176.88 462.89
  Q 174.74 462.65 173.70 460.91
  Q 173.43 460.46 172.90 460.39
  Q 169.10 459.92 166.74 458.25
  Q 164.12 456.41 162.66 455.71
  Q 162.38 455.58 162.37 455.28
  Q 162.37 455.08 162.37 454.91
  A 0.46 0.45 -0.6 0 0 161.90 454.46
  Q 155.38 454.55 152.15 448.81
  A 1.68 1.68 0.0 0 0 149.39 448.56
  Q 148.66 449.45 148.16 449.17
  Q 147.63 448.87 147.06 449.11
  Q 145.88 449.61 145.65 450.77
  A 0.17 0.17 0.0 0 1 145.36 450.86
  L 145.10 450.60
  A 0.27 0.27 0.0 0 0 144.64 450.80
  L 144.63 451.50
  Q 144.63 451.61 144.55 451.54
  Q 144.45 451.46 144.30 451.44
  Q 144.22 451.43 144.23 451.34
  Q 144.79 448.32 142.83 447.21
  Q 143.16 424.39 147.77 402.03
  C 162.38 331.19 200.70 269.64 259.42 227.12
  Z"
/>
<path fill="#fb7411" d="
  M 467.79 242.44
  Q 467.77 242.63 467.76 242.78
  A 1.00 0.99 -17.9 0 1 467.42 243.43
  L 437.90 268.93
  C 424.02 267.02 412.85 277.75 414.10 291.66
  Q 414.03 292.15 413.48 292.16
  Q 413.00 292.17 413.10 291.70
  Q 413.42 290.18 412.44 289.19
  Q 412.01 288.76 411.56 289.17
  L 389.61 309.67
  Q 382.96 307.96 375.47 309.46
  Q 374.96 308.27 373.59 308.31
  A 0.09 0.09 0.0 0 1 373.53 308.15
  L 373.90 307.86
  A 0.32 0.32 0.0 0 0 373.70 307.29
  Q 372.38 307.29 372.34 306.49
  Q 372.32 305.98 371.92 305.65
  Q 369.73 303.88 367.44 302.26
  Q 365.29 300.75 363.15 298.69
  Q 360.68 296.33 357.92 294.30
  Q 357.59 294.06 357.31 294.07
  Q 356.92 294.09 356.56 294.37
  Q 356.35 294.54 356.35 294.27
  Q 356.35 294.10 356.35 293.94
  A 0.21 0.21 0.0 0 0 355.99 293.79
  L 355.63 294.14
  A 0.12 0.12 0.0 0 1 355.43 294.06
  Q 355.43 293.62 355.20 293.33
  Q 355.03 293.13 354.73 293.12
  Q 354.22 293.11 353.91 293.43
  Q 353.63 293.73 353.31 293.47
  L 341.35 283.59
  A 0.31 0.31 0.0 0 1 341.58 283.04
  L 343.84 283.28
  Q 344.79 283.38 344.15 282.67
  L 335.55 273.27
  L 352.70 258.08
  Q 353.92 257.55 354.69 256.54
  Q 355.00 256.12 354.69 255.69
  Q 354.49 255.41 354.04 255.38
  Q 408.99 235.17 467.79 242.44
  Z"
/>
<path fill="#fecc5c" d="
  M 467.79 242.44
  Q 487.01 244.37 505.36 250.09
  L 481.23 266.52
  L 456.75 284.88
  Q 456.36 285.17 455.88 285.29
  L 454.10 285.73
  Q 451.67 272.33 437.90 268.93
  L 467.42 243.43
  A 1.00 0.99 -17.9 0 0 467.76 242.78
  Q 467.77 242.63 467.79 242.44
  Z"
/>
<path fill="#fca821" d="
  M 505.36 250.09
  Q 508.24 250.77 510.75 251.56
  Q 555.56 265.65 592.39 295.27
  C 585.16 307.99 575.83 320.53 565.82 333.91
  Q 558.30 331.34 552.22 326.42
  Q 551.88 326.14 551.88 325.70
  L 551.88 324.58
  A 0.92 0.91 14.1 0 0 551.39 323.77
  L 538.54 317.07
  Q 538.09 316.84 537.60 316.85
  Q 534.83 316.94 532.36 315.66
  Q 532.17 315.57 532.08 315.37
  Q 531.98 315.16 531.93 315.02
  Q 531.90 314.95 531.88 315.02
  Q 531.81 315.31 531.37 315.44
  Q 530.50 315.70 530.93 314.90
  L 531.37 314.09
  A 0.11 0.11 0.0 0 0 531.26 313.93
  Q 530.48 314.03 530.72 312.75
  C 534.95 304.46 529.77 295.61 520.38 296.28
  Q 520.82 294.43 518.37 295.35
  A 0.38 0.32 17.7 0 1 518.00 294.75
  Q 518.14 294.69 518.27 294.62
  Q 518.41 294.56 518.28 294.48
  Q 513.10 291.19 508.79 286.87
  Q 505.36 283.43 502.79 281.62
  Q 492.00 274.02 481.23 266.52
  L 505.36 250.09
  Z"
/>
<path fill="#eb174e" d="
  M 354.04 255.38
  Q 354.49 255.41 354.69 255.69
  Q 355.00 256.12 354.69 256.54
  Q 353.92 257.55 352.70 258.08
  L 349.64 259.95
  Q 349.23 260.21 348.74 260.14
  Q 346.25 259.81 344.52 261.69
  Q 344.24 262.00 343.85 262.14
  Q 336.37 264.78 326.64 270.13
  Q 324.56 271.28 323.42 272.27
  Q 322.98 272.66 323.01 273.24
  L 323.28 279.32
  Q 323.30 279.76 323.02 280.10
  Q 322.25 281.03 321.65 282.08
  Q 320.83 283.52 319.83 284.47
  C 304.61 299.03 289.48 312.53 278.15 330.81
  Q 260.56 359.20 252.81 391.72
  Q 251.41 397.61 249.06 411.37
  Q 246.59 425.79 243.87 440.59
  L 242.27 469.80
  Q 241.74 472.25 240.36 474.21
  Q 240.08 474.59 240.19 475.06
  Q 241.32 479.89 240.99 483.26
  Q 237.81 515.82 237.89 546.00
  Q 237.93 560.34 237.38 571.16
  C 237.25 573.82 236.09 576.54 235.84 579.40
  A 1.27 1.27 0.0 0 0 237.76 580.60
  Q 239.34 579.65 241.13 579.23
  Q 243.15 578.76 244.42 578.00
  Q 250.84 574.21 258.24 572.35
  Q 258.42 572.78 257.65 573.41
  Q 257.47 573.56 258.30 573.88
  L 237.51 581.51
  Q 234.49 583.18 233.05 580.32
  Q 219.66 553.81 214.00 523.24
  Q 213.74 521.82 213.63 518.93
  Q 213.61 518.42 213.09 518.38
  Q 212.77 518.35 212.54 518.45
  Q 213.11 518.02 213.04 517.49
  Q 209.61 492.13 209.53 466.48
  C 209.35 406.64 232.23 351.43 273.67 308.68
  Q 308.89 272.34 354.04 255.38
  Z"
/>
<path fill="#f22324" d="
  M 352.70 258.08
  L 335.55 273.27
  Q 333.92 274.91 332.03 276.78
  Q 330.37 278.41 329.03 280.70
  C 326.45 285.09 322.77 289.42 320.48 293.21
  C 304.16 320.23 294.68 350.64 289.55 381.94
  Q 289.41 382.80 287.72 390.17
  Q 286.55 395.33 287.04 400.39
  L 284.99 402.93
  L 243.87 440.59
  Q 246.59 425.79 249.06 411.37
  Q 251.41 397.61 252.81 391.72
  Q 260.56 359.20 278.15 330.81
  C 289.48 312.53 304.61 299.03 319.83 284.47
  Q 320.83 283.52 321.65 282.08
  Q 322.25 281.03 323.02 280.10
  Q 323.30 279.76 323.28 279.32
  L 323.01 273.24
  Q 322.98 272.66 323.42 272.27
  Q 324.56 271.28 326.64 270.13
  Q 336.37 264.78 343.85 262.14
  Q 344.24 262.00 344.52 261.69
  Q 346.25 259.81 348.74 260.14
  Q 349.23 260.21 349.64 259.95
  L 352.70 258.08
  Z"
/>
<path fill="#f98808" d="
  M 481.23 266.52
  Q 492.00 274.02 502.79 281.62
  Q 505.36 283.43 508.79 286.87
  Q 513.10 291.19 518.28 294.48
  Q 518.41 294.56 518.27 294.62
  Q 518.14 294.69 518.00 294.75
  A 0.38 0.32 17.7 0 0 518.37 295.35
  Q 520.82 294.43 520.38 296.28
  C 509.65 298.89 507.91 313.87 519.02 316.99
  Q 525.53 318.81 530.72 312.75
  Q 530.48 314.03 531.26 313.93
  A 0.11 0.11 0.0 0 1 531.37 314.09
  L 530.93 314.90
  Q 530.50 315.70 531.37 315.44
  Q 531.81 315.31 531.88 315.02
  Q 531.90 314.95 531.93 315.02
  Q 531.98 315.16 532.08 315.37
  Q 532.17 315.57 532.36 315.66
  Q 534.83 316.94 537.60 316.85
  Q 538.09 316.84 538.54 317.07
  L 551.39 323.77
  A 0.92 0.91 14.1 0 1 551.88 324.58
  L 551.88 325.70
  Q 551.88 326.14 552.22 326.42
  Q 558.30 331.34 565.82 333.91
  Q 548.46 356.80 528.80 377.78
  L 526.98 378.41
  Q 526.55 378.56 526.18 378.30
  Q 520.56 374.38 514.19 371.96
  Q 506.73 369.13 505.99 368.82
  Q 501.92 367.13 497.75 365.70
  Q 494.24 364.50 482.63 358.15
  A 0.90 0.90 0.0 0 0 481.71 358.18
  Q 480.91 358.68 480.60 357.72
  A 1.55 1.52 9.8 0 0 480.04 356.94
  Q 478.72 355.95 477.46 354.86
  Q 476.90 354.38 474.98 353.27
  Q 473.30 352.31 472.10 350.26
  Q 471.58 349.39 470.31 348.76
  Q 469.93 348.57 469.71 348.19
  Q 468.67 346.40 466.48 346.21
  Q 466.06 346.17 466.09 345.76
  Q 466.12 345.40 465.87 345.14
  Q 456.18 334.96 446.39 324.85
  Q 446.22 324.67 445.87 324.64
  Q 445.49 324.60 445.33 324.26
  Q 444.09 321.63 442.03 319.61
  Q 441.65 319.24 441.49 318.75
  Q 439.92 313.91 435.89 310.88
  A 0.82 0.76 63.0 0 0 435.45 310.72
  L 430.45 310.53
  Q 429.88 310.51 429.43 310.15
  Q 427.39 308.54 424.81 308.00
  Q 424.49 307.82 424.31 307.59
  Q 423.98 307.15 424.46 306.88
  L 424.93 306.62
  C 440.50 313.23 455.07 302.47 454.10 285.73
  L 455.88 285.29
  Q 456.36 285.17 456.75 284.88
  L 481.23 266.52
  Z"
/>
<path fill="#fcfefd" d="
  M 437.90 268.93
  Q 451.67 272.33 454.10 285.73
  C 455.07 302.47 440.50 313.23 424.93 306.62
  Q 416.23 302.18 414.10 291.66
  C 412.85 277.75 424.02 267.02 437.90 268.93
  Z"
/>
<path fill="#fc5a0e" d="
  M 335.55 273.27
  L 344.15 282.67
  Q 344.79 283.38 343.84 283.28
  L 341.58 283.04
  A 0.31 0.31 0.0 0 0 341.35 283.59
  L 353.31 293.47
  Q 353.63 293.73 353.91 293.43
  Q 354.22 293.11 354.73 293.12
  Q 355.03 293.13 355.20 293.33
  Q 355.43 293.62 355.43 294.06
  A 0.12 0.12 0.0 0 0 355.63 294.14
  L 355.99 293.79
  A 0.21 0.21 0.0 0 1 356.35 293.94
  Q 356.35 294.10 356.35 294.27
  Q 356.35 294.54 356.56 294.37
  Q 356.92 294.09 357.31 294.07
  Q 357.59 294.06 357.92 294.30
  Q 360.68 296.33 363.15 298.69
  Q 365.29 300.75 367.44 302.26
  Q 369.73 303.88 371.92 305.65
  Q 372.32 305.98 372.34 306.49
  Q 372.38 307.29 373.70 307.29
  A 0.32 0.32 0.0 0 1 373.90 307.86
  L 373.53 308.15
  A 0.09 0.09 0.0 0 0 373.59 308.31
  Q 374.96 308.27 375.47 309.46
  C 361.86 313.14 353.85 325.77 357.17 339.81
  Q 356.66 340.42 355.79 338.96
  Q 355.52 338.50 355.13 338.88
  C 353.34 340.64 351.59 342.69 349.82 344.26
  Q 318.58 372.07 287.04 400.39
  Q 286.55 395.33 287.72 390.17
  Q 289.41 382.80 289.55 381.94
  C 294.68 350.64 304.16 320.23 320.48 293.21
  C 322.77 289.42 326.45 285.09 329.03 280.70
  Q 330.37 278.41 332.03 276.78
  Q 333.92 274.91 335.55 273.27
  Z"
/>
<path fill="#fca821" d="
  M 414.10 291.66
  Q 416.23 302.18 424.93 306.62
  L 424.46 306.88
  Q 423.98 307.15 424.31 307.59
  Q 424.49 307.82 424.81 308.00
  Q 424.78 308.86 424.38 309.14
  Q 415.14 315.51 407.40 323.67
  Q 407.00 324.08 406.48 323.83
  L 404.62 322.93
  Q 400.19 313.56 389.61 309.67
  L 411.56 289.17
  Q 412.01 288.76 412.44 289.19
  Q 413.42 290.18 413.10 291.70
  Q 413.00 292.17 413.48 292.16
  Q 414.03 292.15 414.10 291.66
  Z"
/>
<path fill="#f6f78e" d="
  M 592.39 295.27
  Q 610.10 310.06 625.37 327.61
  Q 584.08 383.01 530.63 426.38
  Q 520.63 434.49 502.24 448.65
  L 500.21 448.13
  Q 499.79 448.02 500.17 447.80
  Q 502.52 446.44 502.44 443.70
  Q 502.42 443.20 502.02 442.91
  C 500.46 441.79 499.56 441.33 497.66 441.06
  Q 491.89 440.24 486.13 440.84
  Q 485.75 440.88 485.73 440.50
  Q 485.67 439.61 485.28 438.88
  Q 485.12 438.58 484.77 438.60
  L 476.91 439.15
  A 0.53 0.53 0.0 0 1 476.34 438.66
  L 476.14 435.84
  Q 476.10 435.16 475.48 435.44
  Q 474.81 435.75 474.50 435.65
  Q 471.58 434.70 467.40 435.49
  L 490.40 415.58
  Q 510.30 397.67 528.80 377.78
  Q 548.46 356.80 565.82 333.91
  C 575.83 320.53 585.16 307.99 592.39 295.27
  Z"
/>
<path fill="#fcfefd" d="
  M 520.38 296.28
  C 529.77 295.61 534.95 304.46 530.72 312.75
  Q 525.53 318.81 519.02 316.99
  C 507.91 313.87 509.65 298.89 520.38 296.28
  Z"
/>
<path fill="#2aa9bd" d="
  M 743.34 355.10
  L 736.25 346.50
  Q 752.04 328.91 764.47 308.91
  C 765.07 307.94 765.67 307.12 766.85 306.72
  Q 775.81 303.66 784.35 299.58
  Q 785.15 299.20 784.73 299.98
  C 784.07 301.22 782.79 302.38 782.18 303.41
  Q 765.53 331.25 743.34 355.10
  Z"
/>
<path fill="#fb7411" d="
  M 424.81 308.00
  Q 427.39 308.54 429.43 310.15
  Q 429.88 310.51 430.45 310.53
  L 435.45 310.72
  A 0.82 0.76 63.0 0 1 435.89 310.88
  Q 439.92 313.91 441.49 318.75
  Q 441.65 319.24 442.03 319.61
  Q 444.09 321.63 445.33 324.26
  Q 445.49 324.60 445.87 324.64
  Q 446.22 324.67 446.39 324.85
  Q 456.18 334.96 465.87 345.14
  Q 466.12 345.40 466.09 345.76
  Q 466.06 346.17 466.48 346.21
  Q 468.67 346.40 469.71 348.19
  Q 469.93 348.57 470.31 348.76
  Q 471.58 349.39 472.10 350.26
  Q 473.30 352.31 474.98 353.27
  Q 476.90 354.38 477.46 354.86
  Q 478.72 355.95 480.04 356.94
  A 1.55 1.52 9.8 0 1 480.60 357.72
  Q 480.91 358.68 481.71 358.18
  A 0.90 0.90 0.0 0 1 482.63 358.15
  Q 494.24 364.50 497.75 365.70
  Q 501.92 367.13 505.99 368.82
  Q 506.73 369.13 514.19 371.96
  Q 520.56 374.38 526.18 378.30
  Q 526.55 378.56 526.98 378.41
  L 528.80 377.78
  Q 510.30 397.67 490.40 415.58
  Q 489.03 415.24 488.15 414.72
  Q 486.54 413.78 485.10 414.46
  Q 484.62 414.69 484.09 414.67
  L 482.30 414.58
  Q 482.12 414.57 482.14 414.75
  Q 482.16 414.90 482.18 415.07
  Q 482.23 415.51 481.78 415.54
  Q 481.34 415.57 480.90 415.65
  Q 480.45 415.73 480.06 415.62
  Q 469.80 412.71 459.49 409.80
  Q 458.88 409.63 459.35 409.19
  L 460.39 408.22
  Q 460.85 407.80 460.27 407.55
  C 455.87 405.68 450.70 404.47 446.82 402.82
  Q 443.45 401.38 440.13 399.78
  Q 437.08 398.31 434.12 395.69
  Q 430.57 392.53 426.88 389.54
  Q 423.08 386.47 419.88 383.15
  Q 415.74 378.87 411.43 374.75
  C 410.41 373.77 409.99 372.43 408.19 373.39
  Q 408.04 373.48 408.08 373.52
  L 408.26 373.70
  Q 408.37 373.81 408.29 373.94
  L 407.99 374.47
  Q 407.72 374.93 407.33 374.57
  L 390.31 358.62
  A 0.84 0.84 0.0 0 0 389.42 358.45
  Q 384.53 360.40 379.23 358.11
  Q 403.12 357.85 406.68 335.25
  Q 407.66 329.07 404.62 322.93
  L 406.48 323.83
  Q 407.00 324.08 407.40 323.67
  Q 415.14 315.51 424.38 309.14
  Q 424.78 308.86 424.81 308.00
  Z"
/>
<path fill="#fcfefd" d="
  M 389.61 309.67
  Q 400.19 313.56 404.62 322.93
  Q 407.66 329.07 406.68 335.25
  Q 403.12 357.85 379.23 358.11
  L 373.43 356.77
  Q 360.56 352.77 357.17 339.81
  C 353.85 325.77 361.86 313.14 375.47 309.46
  Q 382.96 307.96 389.61 309.67
  Z"
/>
<path fill="#15b5b5" d="
  M 698.02 348.45
  Q 696.69 342.75 693.74 341.25
  Q 694.44 341.53 694.96 340.77
  Q 695.48 340.01 695.69 339.81
  Q 703.41 332.36 711.26 324.98
  Q 717.10 319.48 724.97 317.63
  Q 725.39 317.53 725.14 317.89
  Q 713.31 334.55 698.02 348.45
  Z"
/>
<path fill="#09497b" d="
  M 693.74 341.25
  Q 696.69 342.75 698.02 348.45
  Q 678.30 366.16 657.07 382.79
  Q 655.77 382.60 657.24 379.38
  L 676.13 362.79
  A 1.40 1.39 -32.6 0 0 676.49 361.17
  Q 670.13 346.82 662.31 333.22
  A 0.55 0.54 -28.3 0 1 662.54 332.46
  L 681.97 322.43
  A 0.72 0.72 0.0 0 1 682.92 322.71
  L 693.74 341.25
  Z"
/>
<path fill="#3bd3a8" d="
  M 625.37 327.61
  L 629.30 332.08
  Q 625.00 335.40 624.92 337.76
  Q 624.69 344.53 623.17 351.07
  Q 620.77 361.42 620.75 361.52
  Q 615.68 386.79 606.02 410.74
  Q 604.21 415.22 606.06 418.71
  Q 563.82 447.15 519.48 472.27
  Q 519.63 470.97 519.37 470.17
  Q 519.21 469.69 518.96 470.13
  Q 518.65 470.65 518.03 470.64
  Q 517.56 470.63 517.05 470.13
  Q 512.54 465.72 507.58 461.81
  Q 507.12 461.45 507.53 461.03
  L 507.81 460.74
  Q 508.19 460.35 507.77 460.01
  L 502.86 456.01
  Q 502.58 455.79 502.23 455.79
  L 500.79 455.78
  A 0.11 0.11 0.0 0 1 500.71 455.59
  Q 500.82 455.49 500.92 455.39
  A 0.29 0.29 0.0 0 0 500.85 454.93
  L 496.97 452.69
  L 502.24 448.65
  Q 520.63 434.49 530.63 426.38
  Q 584.08 383.01 625.37 327.61
  Z"
/>
<path fill="#55fbaa" d="
  M 629.30 332.08
  Q 645.19 353.60 656.37 378.97
  Q 656.67 379.66 657.24 379.38
  Q 655.77 382.60 657.07 382.79
  Q 634.18 400.02 610.40 416.13
  Q 608.30 417.55 606.06 418.71
  Q 604.21 415.22 606.02 410.74
  Q 615.68 386.79 620.75 361.52
  Q 620.77 361.42 623.17 351.07
  Q 624.69 344.53 624.92 337.76
  Q 625.00 335.40 629.30 332.08
  Z"
/>
<path fill="#fb7411" d="
  M 357.17 339.81
  Q 360.56 352.77 373.43 356.77
  Q 369.49 359.27 365.99 362.24
  Q 341.07 383.34 316.51 404.97
  L 285.22 432.87
  A 0.57 0.57 0.0 0 1 284.28 432.43
  L 284.99 402.93
  L 287.04 400.39
  Q 318.58 372.07 349.82 344.26
  C 351.59 342.69 353.34 340.64 355.13 338.88
  Q 355.52 338.50 355.79 338.96
  Q 356.66 340.42 357.17 339.81
  Z"
/>
<path fill="#04649b" d="
  M 736.25 346.50
  L 743.34 355.10
  Q 726.39 373.07 708.29 390.03
  Q 707.84 390.45 707.85 391.94
  Q 702.96 391.13 698.66 386.30
  A 0.75 0.75 0.0 0 0 697.70 386.16
  L 694.96 387.86
  Q 717.02 368.45 736.25 346.50
  Z"
/>
<path fill="#fc5a0e" d="
  M 373.43 356.77
  L 379.23 358.11
  Q 384.53 360.40 389.42 358.45
  A 0.84 0.84 0.0 0 1 390.31 358.62
  L 407.33 374.57
  Q 407.72 374.93 407.99 374.47
  L 408.29 373.94
  Q 408.37 373.81 408.26 373.70
  L 408.08 373.52
  Q 408.04 373.48 408.19 373.39
  C 409.99 372.43 410.41 373.77 411.43 374.75
  Q 415.74 378.87 419.88 383.15
  Q 423.08 386.47 426.88 389.54
  Q 430.57 392.53 434.12 395.69
  Q 437.08 398.31 440.13 399.78
  Q 443.45 401.38 446.82 402.82
  C 450.70 404.47 455.87 405.68 460.27 407.55
  Q 460.85 407.80 460.39 408.22
  L 459.35 409.19
  Q 458.88 409.63 459.49 409.80
  Q 469.80 412.71 480.06 415.62
  Q 480.45 415.73 480.90 415.65
  Q 481.34 415.57 481.78 415.54
  Q 482.23 415.51 482.18 415.07
  Q 482.16 414.90 482.14 414.75
  Q 482.12 414.57 482.30 414.58
  L 484.09 414.67
  Q 484.62 414.69 485.10 414.46
  Q 486.54 413.78 488.15 414.72
  Q 489.03 415.24 490.40 415.58
  L 467.40 435.49
  Q 443.93 455.69 419.04 474.66
  Q 419.37 472.84 418.49 471.74
  A 1.45 1.44 -15.0 0 0 417.55 471.20
  Q 412.57 470.52 408.51 467.53
  A 0.83 0.82 -50.1 0 0 407.43 467.63
  Q 406.81 468.29 406.43 467.35
  A 0.56 0.56 0.0 0 0 405.38 467.41
  L 405.05 468.57
  Q 404.83 469.35 404.11 468.99
  Q 401.95 467.88 399.84 466.81
  Q 377.75 455.51 357.94 440.57
  Q 355.83 438.98 354.17 437.49
  C 351.70 435.27 350.76 433.54 348.83 431.74
  Q 347.36 430.36 346.89 429.62
  Q 344.75 426.29 342.27 423.20
  Q 340.95 421.55 338.52 420.00
  Q 336.41 418.65 334.49 417.01
  Q 326.81 410.51 318.56 404.70
  A 0.89 0.89 0.0 0 0 317.61 404.66
  Q 316.99 405.02 316.51 404.97
  Q 341.07 383.34 365.99 362.24
  Q 369.49 359.27 373.43 356.77
  Z"
/>
<path fill="#063057" d="
  M 707.85 391.94
  Q 712.13 408.59 713.05 414.74
  Q 718.89 453.72 715.73 490.26
  Q 712.67 525.63 699.19 561.25
  Q 698.68 561.37 698.51 560.19
  Q 698.46 559.81 698.18 560.06
  Q 697.95 560.26 697.55 560.19
  Q 696.82 560.06 697.26 560.65
  L 697.78 561.37
  Q 697.99 561.66 697.80 561.97
  L 697.42 562.59
  A 0.26 0.26 0.0 0 1 697.01 562.63
  L 696.34 561.90
  A 0.49 0.49 0.0 0 0 695.57 561.96
  Q 694.65 563.32 693.28 563.94
  Q 693.10 564.02 690.71 565.02
  Q 688.96 565.75 686.25 565.99
  Q 681.22 566.41 674.41 570.77
  Q 674.07 570.98 673.27 571.84
  Q 672.60 572.57 671.62 572.84
  Q 671.20 572.96 670.97 573.32
  Q 669.47 575.71 666.99 577.02
  Q 666.34 577.36 666.31 576.62
  L 666.19 573.63
  A 0.98 0.98 0.0 0 0 664.36 573.17
  Q 663.63 574.40 661.86 575.53
  Q 658.58 577.62 656.50 580.82
  Q 655.30 582.69 653.00 581.56
  Q 652.62 581.37 652.30 581.65
  L 650.07 583.57
  Q 649.67 583.92 649.54 583.40
  L 648.88 580.80
  A 0.51 0.51 0.0 0 0 648.03 580.56
  Q 647.44 581.15 647.27 580.62
  A 0.28 0.28 0.0 0 0 646.80 580.52
  L 645.85 581.56
  A 0.34 0.34 0.0 0 0 646.10 582.13
  L 646.57 582.13
  A 0.60 0.58 81.2 0 1 647.13 582.55
  L 647.24 582.91
  Q 647.41 583.48 646.82 583.55
  L 645.25 583.76
  Q 644.80 583.81 644.65 584.24
  Q 643.96 586.25 644.91 587.67
  Q 645.08 587.93 644.78 587.90
  L 643.79 587.80
  A 0.18 0.18 0.0 0 0 643.59 587.95
  L 643.44 588.96
  Q 643.35 589.54 642.79 589.40
  L 641.95 589.19
  Q 641.57 589.10 641.31 589.39
  Q 640.53 590.28 640.30 591.39
  Q 640.18 592.00 639.63 592.29
  Q 638.15 593.10 637.87 594.80
  Q 637.83 595.08 637.56 595.16
  L 636.40 595.52
  Q 650.25 574.44 658.80 551.33
  Q 677.52 503.03 675.19 450.75
  Q 674.26 429.76 668.50 409.94
  L 694.96 387.86
  L 697.70 386.16
  A 0.75 0.75 0.0 0 1 698.66 386.30
  Q 702.96 391.13 707.85 391.94
  Z"
/>
<path fill="#f94210" d="
  M 284.99 402.93
  L 284.28 432.43
  A 0.57 0.57 0.0 0 0 285.22 432.87
  L 316.51 404.97
  Q 316.99 405.02 317.61 404.66
  A 0.89 0.89 0.0 0 1 318.56 404.70
  Q 326.81 410.51 334.49 417.01
  Q 336.41 418.65 338.52 420.00
  Q 340.95 421.55 342.27 423.20
  Q 344.75 426.29 346.89 429.62
  Q 347.36 430.36 348.83 431.74
  C 350.76 433.54 351.70 435.27 354.17 437.49
  Q 355.83 438.98 357.94 440.57
  Q 377.75 455.51 399.84 466.81
  Q 401.95 467.88 404.11 468.99
  Q 404.83 469.35 405.05 468.57
  L 405.38 467.41
  A 0.56 0.56 0.0 0 1 406.43 467.35
  Q 406.81 468.29 407.43 467.63
  A 0.83 0.82 -50.1 0 1 408.51 467.53
  Q 412.57 470.52 417.55 471.20
  A 1.45 1.44 -15.0 0 1 418.49 471.74
  Q 419.37 472.84 419.04 474.66
  Q 387.40 499.08 353.71 520.42
  L 335.28 531.60
  Q 334.51 531.28 334.29 531.00
  Q 334.13 530.80 334.49 530.13
  Q 335.04 529.12 336.12 529.05
  Q 336.52 529.03 336.33 528.67
  L 336.18 528.37
  Q 336.00 528.05 335.70 528.25
  Q 335.55 528.35 335.38 528.40
  Q 335.07 528.49 334.95 528.19
  Q 334.77 527.73 335.05 527.46
  Q 335.49 527.03 335.23 526.46
  C 334.60 525.09 334.02 523.76 332.67 522.92
  Q 330.01 521.26 327.22 519.80
  Q 326.88 519.61 326.48 519.61
  L 325.25 519.61
  Q 324.64 519.61 324.64 519.00
  L 324.64 518.43
  Q 324.64 517.94 324.24 517.65
  L 321.63 515.75
  Q 321.36 515.55 321.03 515.58
  L 319.46 515.73
  A 0.56 0.56 0.0 0 1 318.97 514.82
  Q 319.60 514.05 317.72 513.68
  Q 317.33 513.60 317.07 513.30
  L 316.47 512.62
  Q 316.17 512.26 315.70 512.22
  C 314.10 512.07 313.69 511.08 312.77 510.47
  Q 310.38 508.89 307.93 507.37
  Q 307.53 507.12 307.13 507.38
  Q 306.35 507.89 305.91 507.14
  A 0.46 0.46 0.0 0 0 305.14 507.09
  Q 304.77 507.57 304.16 507.23
  A 0.43 0.39 10.1 0 1 303.97 506.98
  L 303.83 506.35
  A 0.95 0.95 0.0 0 0 303.10 505.62
  Q 301.29 505.22 300.43 503.61
  Q 300.29 503.34 300.01 503.48
  Q 299.85 503.56 299.70 503.63
  A 0.38 0.38 0.0 0 1 299.15 503.31
  L 299.11 502.61
  Q 299.10 502.47 298.98 502.54
  L 297.92 503.13
  Q 297.54 503.34 297.41 502.92
  L 296.72 500.70
  Q 296.52 500.06 295.87 500.25
  Q 293.35 500.99 292.16 499.70
  Q 288.55 495.78 286.03 494.49
  Q 284.14 493.53 282.48 492.09
  Q 281.76 491.46 281.63 492.41
  L 281.09 496.33
  Q 281.05 496.61 280.85 496.41
  Q 280.62 496.19 280.65 495.75
  Q 282.81 465.78 283.86 436.02
  A 0.85 0.84 -18.2 0 0 282.49 435.33
  Q 274.53 441.65 267.59 448.59
  Q 263.04 453.12 244.48 469.17
  Q 244.07 469.52 243.75 470.08
  Q 242.48 472.25 242.27 469.80
  L 243.87 440.59
  L 284.99 402.93
  Z"
/>
<path fill="#15b5b5" d="
  M 668.50 409.94
  Q 674.26 429.76 675.19 450.75
  Q 677.52 503.03 658.80 551.33
  Q 659.09 550.02 658.36 549.49
  A 0.65 0.64 37.8 0 0 657.49 549.59
  L 634.52 576.75
  Q 634.94 574.52 636.78 572.99
  A 0.15 0.15 0.0 0 0 636.75 572.75
  Q 636.61 572.68 636.43 572.64
  A 0.23 0.23 0.0 0 1 636.48 572.18
  L 637.27 572.16
  Q 638.01 572.14 638.26 571.44
  L 639.45 568.21
  Q 639.60 567.81 639.48 567.40
  Q 638.73 564.80 638.83 562.04
  Q 638.83 561.86 639.01 561.87
  Q 639.14 561.87 639.27 561.87
  Q 639.48 561.88 639.46 561.66
  Q 639.33 560.75 638.67 560.86
  Q 637.90 560.98 638.23 560.28
  L 638.53 559.62
  Q 638.82 559.00 638.15 558.86
  L 621.68 555.16
  Q 621.24 555.06 621.04 554.65
  Q 619.93 552.41 617.29 552.70
  Q 617.12 552.72 617.12 552.54
  Q 617.12 552.38 617.12 552.21
  A 0.39 0.39 0.0 0 0 616.69 551.81
  Q 611.27 552.30 606.34 550.15
  Q 605.83 549.92 605.29 550.06
  Q 604.50 550.26 604.08 549.60
  Q 603.81 549.18 603.32 549.09
  L 592.94 547.18
  A 0.60 0.60 0.0 0 0 592.26 547.56
  Q 591.52 549.55 590.49 549.21
  C 615.56 516.64 635.34 477.98 648.77 439.24
  C 649.97 435.77 650.74 431.75 651.89 428.01
  Q 652.32 426.60 651.53 423.11
  L 668.50 409.94
  Z"
/>
<path fill="#38ddc0" d="
  M 651.53 423.11
  Q 652.32 426.60 651.89 428.01
  C 650.74 431.75 649.97 435.77 648.77 439.24
  C 635.34 477.98 615.56 516.64 590.49 549.21
  Q 568.45 578.72 540.02 602.08
  L 537.83 603.83
  Q 533.35 597.17 527.16 591.78
  Q 526.74 591.41 526.84 590.86
  Q 526.99 590.00 526.52 589.29
  Q 526.15 588.73 526.80 588.88
  L 527.53 589.04
  A 0.16 0.16 0.0 0 0 527.68 588.78
  L 518.01 578.10
  Q 517.61 577.66 517.19 578.08
  L 516.45 578.83
  Q 516.03 579.24 515.64 578.81
  Q 511.63 574.39 506.45 571.43
  Q 532.97 546.18 554.30 516.48
  Q 559.74 509.49 563.14 504.40
  Q 573.60 488.76 584.89 469.59
  Q 585.15 469.16 585.07 469.06
  Q 584.93 468.89 584.45 468.66
  Q 613.71 450.55 636.68 433.67
  Q 647.36 425.82 651.53 423.11
  Z"
/>
<path fill="#c3db9c" d="
  M 502.24 448.65
  L 496.97 452.69
  C 454.23 483.74 411.50 510.08 363.40 532.55
  Q 357.51 526.87 349.74 527.40
  Q 348.93 527.45 349.58 526.96
  Q 351.23 525.68 352.23 523.75
  A 0.14 0.14 0.0 0 0 351.99 523.60
  Q 349.87 526.45 346.74 528.03
  Q 346.01 528.40 346.49 527.74
  Q 347.16 526.83 348.16 526.27
  Q 348.53 526.07 348.81 525.76
  L 350.88 523.49
  Q 351.20 523.14 351.65 523.03
  Q 353.65 522.54 353.71 520.42
  Q 387.40 499.08 419.04 474.66
  Q 443.93 455.69 467.40 435.49
  Q 471.58 434.70 474.50 435.65
  Q 474.81 435.75 475.48 435.44
  Q 476.10 435.16 476.14 435.84
  L 476.34 438.66
  A 0.53 0.53 0.0 0 0 476.91 439.15
  L 484.77 438.60
  Q 485.12 438.58 485.28 438.88
  Q 485.67 439.61 485.73 440.50
  Q 485.75 440.88 486.13 440.84
  Q 491.89 440.24 497.66 441.06
  C 499.56 441.33 500.46 441.79 502.02 442.91
  Q 502.42 443.20 502.44 443.70
  Q 502.52 446.44 500.17 447.80
  Q 499.79 448.02 500.21 448.13
  L 502.24 448.65
  Z"
/>
<path fill="#f22324" d="
  M 335.28 531.60
  Q 313.65 544.54 277.75 562.98
  Q 263.69 570.21 258.24 572.35
  Q 250.84 574.21 244.42 578.00
  Q 243.15 578.76 241.13 579.23
  Q 239.34 579.65 237.76 580.60
  A 1.27 1.27 0.0 0 1 235.84 579.40
  C 236.09 576.54 237.25 573.82 237.38 571.16
  Q 237.93 560.34 237.89 546.00
  Q 237.81 515.82 240.99 483.26
  Q 241.32 479.89 240.19 475.06
  Q 240.08 474.59 240.36 474.21
  Q 241.74 472.25 242.27 469.80
  Q 242.48 472.25 243.75 470.08
  Q 244.07 469.52 244.48 469.17
  Q 263.04 453.12 267.59 448.59
  Q 274.53 441.65 282.49 435.33
  A 0.85 0.84 -18.2 0 1 283.86 436.02
  Q 282.81 465.78 280.65 495.75
  Q 280.62 496.19 280.85 496.41
  Q 281.05 496.61 281.09 496.33
  L 281.63 492.41
  Q 281.76 491.46 282.48 492.09
  Q 284.14 493.53 286.03 494.49
  Q 288.55 495.78 292.16 499.70
  Q 293.35 500.99 295.87 500.25
  Q 296.52 500.06 296.72 500.70
  L 297.41 502.92
  Q 297.54 503.34 297.92 503.13
  L 298.98 502.54
  Q 299.10 502.47 299.11 502.61
  L 299.15 503.31
  A 0.38 0.38 0.0 0 0 299.70 503.63
  Q 299.85 503.56 300.01 503.48
  Q 300.29 503.34 300.43 503.61
  Q 301.29 505.22 303.10 505.62
  A 0.95 0.95 0.0 0 1 303.83 506.35
  L 303.97 506.98
  A 0.43 0.39 10.1 0 0 304.16 507.23
  Q 304.77 507.57 305.14 507.09
  A 0.46 0.46 0.0 0 1 305.91 507.14
  Q 306.35 507.89 307.13 507.38
  Q 307.53 507.12 307.93 507.37
  Q 310.38 508.89 312.77 510.47
  C 313.69 511.08 314.10 512.07 315.70 512.22
  Q 316.17 512.26 316.47 512.62
  L 317.07 513.30
  Q 317.33 513.60 317.72 513.68
  Q 319.60 514.05 318.97 514.82
  A 0.56 0.56 0.0 0 0 319.46 515.73
  L 321.03 515.58
  Q 321.36 515.55 321.63 515.75
  L 324.24 517.65
  Q 324.64 517.94 324.64 518.43
  L 324.64 519.00
  Q 324.64 519.61 325.25 519.61
  L 326.48 519.61
  Q 326.88 519.61 327.22 519.80
  Q 330.01 521.26 332.67 522.92
  C 334.02 523.76 334.60 525.09 335.23 526.46
  Q 335.49 527.03 335.05 527.46
  Q 334.77 527.73 334.95 528.19
  Q 335.07 528.49 335.38 528.40
  Q 335.55 528.35 335.70 528.25
  Q 336.00 528.05 336.18 528.37
  L 336.33 528.67
  Q 336.52 529.03 336.12 529.05
  Q 335.04 529.12 334.49 530.13
  Q 334.13 530.80 334.29 531.00
  Q 334.51 531.28 335.28 531.60
  Z"
/>
<path fill="#011e3f" d="
  M 142.83 447.21
  Q 144.79 448.32 144.23 451.34
  Q 144.22 451.43 144.30 451.44
  Q 144.45 451.46 144.55 451.54
  Q 144.63 451.61 144.63 451.50
  L 144.64 450.80
  A 0.27 0.27 0.0 0 1 145.10 450.60
  L 145.36 450.86
  A 0.17 0.17 0.0 0 0 145.65 450.77
  Q 145.88 449.61 147.06 449.11
  Q 147.63 448.87 148.16 449.17
  Q 148.66 449.45 149.39 448.56
  A 1.68 1.68 0.0 0 1 152.15 448.81
  Q 155.38 454.55 161.90 454.46
  A 0.46 0.45 -0.6 0 1 162.37 454.91
  Q 162.37 455.08 162.37 455.28
  Q 162.38 455.58 162.66 455.71
  Q 164.12 456.41 166.74 458.25
  Q 169.10 459.92 172.90 460.39
  Q 173.43 460.46 173.70 460.91
  Q 174.74 462.65 176.88 462.89
  A 0.70 0.70 0.0 0 0 177.66 462.16
  Q 177.57 460.14 179.41 460.59
  Q 179.87 460.71 179.87 461.18
  Q 179.87 461.34 179.87 461.50
  Q 179.92 462.55 180.05 461.51
  L 180.39 458.80
  Q 180.45 458.30 180.88 458.03
  L 181.48 457.64
  Q 181.94 457.34 181.80 456.81
  Q 181.65 456.22 182.29 455.73
  Q 182.57 455.51 182.62 455.86
  Q 182.68 456.28 182.54 456.61
  Q 182.51 484.53 188.47 512.24
  Q 191.01 524.06 194.95 534.35
  Q 195.13 534.82 195.49 534.48
  L 212.54 518.45
  Q 212.77 518.35 213.09 518.38
  Q 213.61 518.42 213.63 518.93
  Q 213.74 521.82 214.00 523.24
  Q 219.66 553.81 233.05 580.32
  Q 234.49 583.18 237.51 581.51
  Q 237.71 581.98 237.00 582.22
  Q 236.51 582.39 236.67 582.89
  Q 236.96 583.76 236.11 584.36
  Q 235.71 584.64 235.71 585.14
  L 235.62 591.39
  Q 210.57 597.44 185.47 601.83
  A 2.12 2.11 -21.2 0 1 183.31 600.88
  Q 139.35 530.94 142.83 447.21
  Z"
/>
<path fill="#1a97a4" d="
  M 496.97 452.69
  L 500.85 454.93
  A 0.29 0.29 0.0 0 1 500.92 455.39
  Q 500.82 455.49 500.71 455.59
  A 0.11 0.11 0.0 0 0 500.79 455.78
  L 502.23 455.79
  Q 502.58 455.79 502.86 456.01
  L 507.77 460.01
  Q 508.19 460.35 507.81 460.74
  L 507.53 461.03
  Q 507.12 461.45 507.58 461.81
  Q 512.54 465.72 517.05 470.13
  Q 517.56 470.63 518.03 470.64
  Q 518.65 470.65 518.96 470.13
  Q 519.21 469.69 519.37 470.17
  Q 519.63 470.97 519.48 472.27
  Q 441.17 517.80 357.32 551.60
  L 357.28 551.03
  Q 357.24 550.53 356.80 550.28
  Q 352.99 548.21 349.09 546.37
  Q 347.55 545.64 343.74 541.54
  L 363.40 532.55
  C 411.50 510.08 454.23 483.74 496.97 452.69
  Z"
/>
<path fill="#15b5b5" d="
  M 584.45 468.66
  Q 584.93 468.89 585.07 469.06
  Q 585.15 469.16 584.89 469.59
  Q 573.60 488.76 563.14 504.40
  Q 559.74 509.49 554.30 516.48
  C 555.11 510.60 550.14 504.63 545.66 501.47
  Q 544.41 500.59 541.29 496.85
  Q 540.90 496.38 540.37 496.69
  L 537.62 498.25
  Q 537.37 498.40 537.24 498.13
  Q 537.19 498.02 537.17 497.88
  L 584.45 468.66
  Z"
/>
<path fill="#0880a4" d="
  M 554.30 516.48
  Q 532.97 546.18 506.45 571.43
  Q 476.54 599.37 441.84 621.01
  Q 442.23 619.43 440.64 618.37
  Q 440.52 618.30 440.45 618.17
  Q 440.17 617.67 440.70 617.97
  A 0.13 0.13 0.0 0 0 440.87 617.79
  Q 439.98 616.49 438.74 616.79
  Q 436.39 617.38 435.90 615.88
  Q 435.75 615.42 435.28 615.40
  L 434.15 615.34
  Q 433.63 615.31 433.27 614.95
  Q 432.15 613.87 431.08 612.74
  Q 430.16 611.78 428.91 611.10
  Q 418.49 605.45 408.10 599.74
  Q 403.79 597.37 399.35 595.66
  Q 394.86 593.93 390.38 592.17
  Q 389.97 592.01 389.89 591.57
  L 389.71 590.47
  Q 418.92 574.60 447.16 556.54
  A 0.45 0.45 0.0 0 0 447.03 555.73
  L 442.80 554.70
  A 0.75 0.75 0.0 0 1 442.23 553.97
  Q 442.22 552.36 441.34 552.26
  Q 490.17 526.91 537.17 497.88
  Q 537.19 498.02 537.24 498.13
  Q 537.37 498.40 537.62 498.25
  L 540.37 496.69
  Q 540.90 496.38 541.29 496.85
  Q 544.41 500.59 545.66 501.47
  C 550.14 504.63 555.11 510.60 554.30 516.48
  Z"
/>
<path fill="#011e3f" d="
  M 441.34 552.26
  Q 442.22 552.36 442.23 553.97
  A 0.75 0.75 0.0 0 0 442.80 554.70
  L 447.03 555.73
  A 0.45 0.45 0.0 0 1 447.16 556.54
  Q 418.92 574.60 389.71 590.47
  C 352.77 610.72 314.06 626.76 274.39 640.79
  A 0.50 0.49 55.9 0 0 274.23 641.63
  Q 290.50 655.84 309.03 665.76
  C 316.13 669.88 324.55 675.37 332.41 676.88
  C 333.95 678.06 335.67 679.29 337.46 680.09
  C 364.03 691.97 393.28 698.19 422.27 699.65
  Q 453.69 701.75 480.10 696.84
  Q 534.21 686.77 580.93 653.44
  Q 613.14 630.47 636.40 595.52
  L 637.56 595.16
  Q 637.83 595.08 637.87 594.80
  Q 638.15 593.10 639.63 592.29
  Q 640.18 592.00 640.30 591.39
  Q 640.53 590.28 641.31 589.39
  Q 641.57 589.10 641.95 589.19
  L 642.79 589.40
  Q 643.35 589.54 643.44 588.96
  L 643.59 587.95
  A 0.18 0.18 0.0 0 1 643.79 587.80
  L 644.78 587.90
  Q 645.08 587.93 644.91 587.67
  Q 643.96 586.25 644.65 584.24
  Q 644.80 583.81 645.25 583.76
  L 646.82 583.55
  Q 647.41 583.48 647.24 582.91
  L 647.13 582.55
  A 0.60 0.58 81.2 0 0 646.57 582.13
  L 646.10 582.13
  A 0.34 0.34 0.0 0 1 645.85 581.56
  L 646.80 580.52
  A 0.28 0.28 0.0 0 1 647.27 580.62
  Q 647.44 581.15 648.03 580.56
  A 0.51 0.51 0.0 0 1 648.88 580.80
  L 649.54 583.40
  Q 649.67 583.92 650.07 583.57
  L 652.30 581.65
  Q 652.62 581.37 653.00 581.56
  Q 655.30 582.69 656.50 580.82
  Q 658.58 577.62 661.86 575.53
  Q 663.63 574.40 664.36 573.17
  A 0.98 0.98 0.0 0 1 666.19 573.63
  L 666.31 576.62
  Q 666.34 577.36 666.99 577.02
  Q 669.47 575.71 670.97 573.32
  Q 671.20 572.96 671.62 572.84
  Q 672.60 572.57 673.27 571.84
  Q 674.07 570.98 674.41 570.77
  Q 681.22 566.41 686.25 565.99
  Q 688.96 565.75 690.71 565.02
  Q 693.10 564.02 693.28 563.94
  Q 694.65 563.32 695.57 561.96
  A 0.49 0.49 0.0 0 1 696.34 561.90
  L 697.01 562.63
  A 0.26 0.26 0.0 0 0 697.42 562.59
  L 697.80 561.97
  Q 697.99 561.66 697.78 561.37
  L 697.26 560.65
  Q 696.82 560.06 697.55 560.19
  Q 697.95 560.26 698.18 560.06
  Q 698.46 559.81 698.51 560.19
  Q 698.68 561.37 699.19 561.25
  C 675.26 625.07 629.39 678.13 568.57 709.35
  C 468.83 760.54 346.83 749.21 258.08 680.90
  Q 244.32 670.30 228.75 655.57
  Q 228.38 655.21 227.89 655.37
  Q 178.90 670.43 128.24 677.56
  Q 108.82 680.29 89.26 680.27
  C 76.31 680.25 61.16 677.82 50.48 671.53
  C 27.23 657.82 30.92 627.94 40.73 606.21
  C 57.95 568.06 87.14 534.83 118.52 507.62
  A 0.42 0.42 0.0 0 1 119.21 507.86
  Q 122.90 527.01 129.58 545.48
  C 130.28 547.42 128.78 547.68 127.82 548.67
  C 113.77 563.13 97.23 581.58 88.87 602.13
  C 84.56 612.73 86.92 623.33 96.21 630.05
  C 107.74 638.40 128.40 638.68 142.26 637.55
  C 154.35 636.56 165.20 635.41 177.17 633.19
  C 232.45 622.95 286.80 606.71 339.17 586.34
  Q 368.91 574.78 397.90 562.46
  A 3.31 3.29 -48.1 0 1 400.14 562.33
  Q 403.51 563.36 407.11 564.12
  C 412.50 565.25 415.76 564.26 420.54 562.07
  Q 430.95 557.29 441.34 552.26
  Z"
/>
<path fill="#9ebf9a" d="
  M 353.71 520.42
  Q 353.65 522.54 351.65 523.03
  Q 351.20 523.14 350.88 523.49
  L 348.81 525.76
  Q 348.53 526.07 348.16 526.27
  Q 347.16 526.83 346.49 527.74
  Q 346.01 528.40 346.74 528.03
  Q 349.87 526.45 351.99 523.60
  A 0.14 0.14 0.0 0 1 352.23 523.75
  Q 351.23 525.68 349.58 526.96
  Q 348.93 527.45 349.74 527.40
  Q 357.51 526.87 363.40 532.55
  L 343.74 541.54
  Q 301.65 559.32 258.30 573.88
  Q 257.47 573.56 257.65 573.41
  Q 258.42 572.78 258.24 572.35
  Q 263.69 570.21 277.75 562.98
  Q 313.65 544.54 335.28 531.60
  L 353.71 520.42
  Z"
/>
<path fill="#09497b" d="
  M 343.74 541.54
  Q 347.55 545.64 349.09 546.37
  Q 352.99 548.21 356.80 550.28
  Q 357.24 550.53 357.28 551.03
  L 357.32 551.60
  Q 297.66 575.69 235.62 591.39
  L 235.71 585.14
  Q 235.71 584.64 236.11 584.36
  Q 236.96 583.76 236.67 582.89
  Q 236.51 582.39 237.00 582.22
  Q 237.71 581.98 237.51 581.51
  L 258.30 573.88
  Q 301.65 559.32 343.74 541.54
  Z"
/>
<path fill="#0690ac" d="
  M 634.52 576.75
  Q 610.84 604.07 583.04 626.73
  Q 582.01 622.81 584.01 620.87
  Q 584.38 620.51 584.38 619.99
  L 584.38 617.50
  Q 584.38 616.88 585.00 616.88
  L 586.51 616.88
  A 0.45 0.45 0.0 0 0 586.91 616.23
  Q 585.64 613.69 582.98 612.76
  Q 582.42 612.56 581.88 612.84
  L 580.38 613.61
  Q 580.01 613.80 579.64 613.60
  C 578.26 612.85 577.00 611.88 575.45 611.53
  Q 565.90 609.42 556.52 606.57
  Q 555.95 606.39 555.87 606.99
  Q 555.83 607.25 555.59 607.34
  A 0.35 0.35 0.0 0 1 555.13 607.14
  L 554.73 606.08
  A 0.43 0.43 0.0 0 0 553.90 606.20
  L 553.80 607.15
  A 0.31 0.30 -81.1 0 1 553.43 607.43
  Q 552.81 607.29 552.86 606.81
  Q 552.88 606.51 552.61 606.41
  Q 551.83 606.13 552.21 606.96
  Q 552.68 607.97 551.68 607.48
  L 547.00 605.19
  A 0.52 0.45 49.2 0 0 546.66 605.14
  Q 545.02 605.46 543.70 604.63
  Q 543.28 604.37 542.79 604.30
  Q 540.80 604.04 540.02 602.08
  Q 568.45 578.72 590.49 549.21
  Q 591.52 549.55 592.26 547.56
  A 0.60 0.60 0.0 0 1 592.94 547.18
  L 603.32 549.09
  Q 603.81 549.18 604.08 549.60
  Q 604.50 550.26 605.29 550.06
  Q 605.83 549.92 606.34 550.15
  Q 611.27 552.30 616.69 551.81
  A 0.39 0.39 0.0 0 1 617.12 552.21
  Q 617.12 552.38 617.12 552.54
  Q 617.12 552.72 617.29 552.70
  Q 619.93 552.41 621.04 554.65
  Q 621.24 555.06 621.68 555.16
  L 638.15 558.86
  Q 638.82 559.00 638.53 559.62
  L 638.23 560.28
  Q 637.90 560.98 638.67 560.86
  Q 639.33 560.75 639.46 561.66
  Q 639.48 561.88 639.27 561.87
  Q 639.14 561.87 639.01 561.87
  Q 638.83 561.86 638.83 562.04
  Q 638.73 564.80 639.48 567.40
  Q 639.60 567.81 639.45 568.21
  L 638.26 571.44
  Q 638.01 572.14 637.27 572.16
  L 636.48 572.18
  A 0.23 0.23 0.0 0 0 636.43 572.64
  Q 636.61 572.68 636.75 572.75
  A 0.15 0.15 0.0 0 1 636.78 572.99
  Q 634.94 574.52 634.52 576.75
  Z"
/>
<path fill="#2aa9bd" d="
  M 658.80 551.33
  Q 650.25 574.44 636.40 595.52
  Q 613.14 630.47 580.93 653.44
  Q 534.21 686.77 480.10 696.84
  Q 453.69 701.75 422.27 699.65
  Q 421.27 699.02 420.10 698.89
  A 0.41 0.41 0.0 0 1 420.12 698.08
  Q 438.20 696.79 455.94 691.88
  Q 463.03 689.92 470.16 688.02
  Q 478.52 685.79 484.26 683.77
  Q 538.74 664.53 583.04 626.73
  Q 610.84 604.07 634.52 576.75
  L 657.49 549.59
  A 0.65 0.64 37.8 0 1 658.36 549.49
  Q 659.09 550.02 658.80 551.33
  Z"
/>
<path fill="#2aa9bd" d="
  M 506.45 571.43
  Q 511.63 574.39 515.64 578.81
  Q 516.03 579.24 516.45 578.83
  L 517.19 578.08
  Q 517.61 577.66 518.01 578.10
  L 527.68 588.78
  A 0.16 0.16 0.0 0 1 527.53 589.04
  L 526.80 588.88
  Q 526.15 588.73 526.52 589.29
  Q 526.99 590.00 526.84 590.86
  Q 526.74 591.41 527.16 591.78
  Q 533.35 597.17 537.83 603.83
  Q 536.41 605.15 532.87 607.87
  Q 481.77 647.20 420.49 664.86
  L 417.48 664.62
  A 1.05 1.03 -13.1 0 1 416.70 664.14
  Q 414.35 660.26 409.85 659.63
  Q 409.35 659.56 409.02 659.18
  Q 407.36 657.28 406.01 656.73
  Q 400.46 654.49 394.25 650.51
  Q 392.51 649.39 392.00 647.78
  Q 391.92 647.54 391.68 647.60
  L 391.19 647.71
  Q 390.57 647.85 390.96 647.34
  L 391.22 647.02
  Q 417.60 636.36 441.84 621.01
  Q 476.54 599.37 506.45 571.43
  Z"
/>
<path fill="#04649b" d="
  M 389.71 590.47
  L 389.89 591.57
  Q 389.97 592.01 390.38 592.17
  Q 394.86 593.93 399.35 595.66
  Q 403.79 597.37 408.10 599.74
  Q 418.49 605.45 428.91 611.10
  Q 430.16 611.78 431.08 612.74
  Q 432.15 613.87 433.27 614.95
  Q 433.63 615.31 434.15 615.34
  L 435.28 615.40
  Q 435.75 615.42 435.90 615.88
  Q 436.39 617.38 438.74 616.79
  Q 439.98 616.49 440.87 617.79
  A 0.13 0.13 0.0 0 1 440.70 617.97
  Q 440.17 617.67 440.45 618.17
  Q 440.52 618.30 440.64 618.37
  Q 442.23 619.43 441.84 621.01
  Q 417.60 636.36 391.22 647.02
  Q 366.77 657.38 340.91 662.56
  Q 333.75 663.99 325.03 664.66
  Q 317.17 665.27 309.03 665.76
  Q 290.50 655.84 274.23 641.63
  A 0.50 0.49 55.9 0 1 274.39 640.79
  C 314.06 626.76 352.77 610.72 389.71 590.47
  Z"
/>
<path fill="#04649b" d="
  M 540.02 602.08
  Q 540.80 604.04 542.79 604.30
  Q 543.28 604.37 543.70 604.63
  Q 545.02 605.46 546.66 605.14
  A 0.52 0.45 49.2 0 1 547.00 605.19
  L 551.68 607.48
  Q 552.68 607.97 552.21 606.96
  Q 551.83 606.13 552.61 606.41
  Q 552.88 606.51 552.86 606.81
  Q 552.81 607.29 553.43 607.43
  A 0.31 0.30 -81.1 0 0 553.80 607.15
  L 553.90 606.20
  A 0.43 0.43 0.0 0 1 554.73 606.08
  L 555.13 607.14
  A 0.35 0.35 0.0 0 0 555.59 607.34
  Q 555.83 607.25 555.87 606.99
  Q 555.95 606.39 556.52 606.57
  Q 565.90 609.42 575.45 611.53
  C 577.00 611.88 578.26 612.85 579.64 613.60
  Q 580.01 613.80 580.38 613.61
  L 581.88 612.84
  Q 582.42 612.56 582.98 612.76
  Q 585.64 613.69 586.91 616.23
  A 0.45 0.45 0.0 0 1 586.51 616.88
  L 585.00 616.88
  Q 584.38 616.88 584.38 617.50
  L 584.38 619.99
  Q 584.38 620.51 584.01 620.87
  Q 582.01 622.81 583.04 626.73
  Q 538.74 664.53 484.26 683.77
  Q 478.52 685.79 470.16 688.02
  Q 463.03 689.92 455.94 691.88
  Q 438.20 696.79 420.12 698.08
  A 0.41 0.41 0.0 0 0 420.10 698.89
  Q 421.27 699.02 422.27 699.65
  C 393.28 698.19 364.03 691.97 337.46 680.09
  C 335.67 679.29 333.95 678.06 332.41 676.88
  Q 357.12 676.29 371.75 674.73
  Q 394.30 672.34 420.49 664.86
  Q 481.77 647.20 532.87 607.87
  Q 536.41 605.15 537.83 603.83
  L 540.02 602.08
  Z"
/>
<path fill="#0880a4" d="
  M 391.22 647.02
  L 390.96 647.34
  Q 390.57 647.85 391.19 647.71
  L 391.68 647.60
  Q 391.92 647.54 392.00 647.78
  Q 392.51 649.39 394.25 650.51
  Q 400.46 654.49 406.01 656.73
  Q 407.36 657.28 409.02 659.18
  Q 409.35 659.56 409.85 659.63
  Q 414.35 660.26 416.70 664.14
  A 1.05 1.03 -13.1 0 0 417.48 664.62
  L 420.49 664.86
  Q 394.30 672.34 371.75 674.73
  Q 357.12 676.29 332.41 676.88
  C 324.55 675.37 316.13 669.88 309.03 665.76
  Q 317.17 665.27 325.03 664.66
  Q 333.75 663.99 340.91 662.56
  Q 366.77 657.38 391.22 647.02
  Z"
/>
</svg>
